<svg xmlns="http://www.w3.org/2000/svg" xmlns:xlink="http://www.w3.org/1999/xlink" id="Capa_1" x="0" y="0" version="1.1" viewBox="0 0 55 55" xml:space="preserve" style="enable-background:new 0 0 55 55"><style type="text/css">.st0d{fill:#545e73}.st1{fill:#38454f}.st2d{fill:#556080}.st3d{fill:#91bae1}.st4d{fill:#8697cb}.st5d{fill:#49db7a}.st6d{fill:#fff}</style><g><g><path d="M49,8L49,8c-0.7-4.5-11.2-8-24-8S1.8,3.5,1,8l0,0h0v0.5V20v0.5V21v11v0.5V33v12h0c0.7,4.5,11.2,8,24,8 s23.2-3.5,24-8h0V33v-0.5V32V21v-0.5V20V8.5L49,8L49,8z" class="st0d"/><g><path d="M25,41c-13.3,0-24-3.8-24-8.5V45h0c0.7,4.5,11.2,8,24,8s23.2-3.5,24-8h0V32.5C49,37.2,38.3,41,25,41z" class="st1"/><path d="M1,32v0.5C1,32.3,1,32.2,1,32L1,32z" class="st1"/><path d="M49,32c0,0.2,0,0.3,0,0.5L49,32L49,32z" class="st1"/></g><g><path d="M25,29c-13.3,0-24-3.8-24-8.5V33h0c0.7,4.5,11.2,8,24,8s23.2-3.5,24-8h0V20.5C49,25.2,38.3,29,25,29z" class="st2d"/><path d="M1,20v0.5C1,20.3,1,20.2,1,20L1,20z" class="st2d"/><path d="M49,20c0,0.2,0,0.3,0,0.5L49,20L49,20z" class="st2d"/></g><ellipse cx="25" cy="8.5" class="st3d" rx="24" ry="8.5"/><g><path d="M25,17C11.7,17,1,13.2,1,8.5V21h0c0.7,4.5,11.2,8,24,8s23.2-3.5,24-8h0V8.5C49,13.2,38.3,17,25,17z" class="st4d"/><path d="M1,8v0.5C1,8.3,1,8.2,1,8L1,8z" class="st4d"/><path d="M49,8c0,0.2,0,0.3,0,0.5L49,8L49,8z" class="st4d"/></g></g><g><rect width="34.8" height="34.8" x="19.2" y="20.2" class="st5d"/><rect width="3.2" height="25.3" x="35" y="29.7" class="st6d"/><polygon points="45 40.3 36.6 31.9 28.2 40.3 26 38 36.6 27.4 47.2 38" class="st6d"/></g></g></svg>