<svg xmlns="http://www.w3.org/2000/svg" xmlns:xlink="http://www.w3.org/1999/xlink" id="Livello_1" x="0" y="0" version="1.1" viewBox="0 0 2834.6 2834.6" xml:space="preserve" style="enable-background:new 0 0 2834.6 2834.6"><style type="text/css">.st0{opacity:0;fill:#fff}.st1{opacity:2.439024e-02;fill:#f8f6fb}.st2{opacity:4.878049e-02;fill:#f3f0f7}.st3{opacity:7.317073e-02;fill:#efeaf4}.st4{opacity:9.756097e-02;fill:#ebe4f2}.st5{opacity:.122;fill:#e7dfef}.st6{opacity:.1463;fill:#e3d9ec}.st7{opacity:.1707;fill:#dfd4e9}.st8{opacity:.1951;fill:#dbcee6}.st9{opacity:.2195;fill:#d7c9e3}.st10{opacity:.2439;fill:#d3c4e0}.st11{opacity:.2683;fill:#d0bfdd}.st12{opacity:.2927;fill:#ccbadb}.st13{opacity:.3171;fill:#c9b5d8}.st14{opacity:.3415;fill:#c5b0d5}.st15{opacity:.3659;fill:#c2abd2}.st16{opacity:.3902;fill:#bea6cf}.st17{opacity:.4146;fill:#bba1cd}.st18{opacity:.439;fill:#b89cca}.st19{opacity:.4634;fill:#b598c7}.st20{opacity:.4878;fill:#b293c5}.st21{opacity:.5122;fill:#af8fc2}.st22{opacity:.5366;fill:#ac8ac0}.st23{opacity:.561;fill:#a986bd}.st24{opacity:.5854;fill:#a682bb}.st25{opacity:.6098;fill:#a37eb9}.st26{opacity:.6341;fill:#a07ab6}.st27{opacity:.6585;fill:#9e76b4}.st28{opacity:.6829;fill:#9b72b2}.st29{opacity:.7073;fill:#986eb0}.st30{opacity:.7317;fill:#966aae}.st31{opacity:.7561;fill:#9366ac}.st32{opacity:.7805;fill:#9163a9}.st33{opacity:.8049;fill:#8e5fa7}.st34{opacity:.8293;fill:#8c5aa5}.st35{opacity:.8537;fill:#8a56a3}.st36{opacity:.878;fill:#8852a1}.st37{opacity:.9024;fill:#854e9f}.st38{opacity:.9268;fill:#834a9d}.st39{opacity:.9512;fill:#81469b}.st40{opacity:.9756;fill:#7f4299}.st41{fill:#7d3d97}.st42{fill:url(#XMLID_5_)}.st43{fill:url(#XMLID_6_)}.st44{fill:#c4acd3}.st45{fill:#947cb9}.st46{fill:url(#XMLID_7_)}.st47{fill:#f6f0f7}.st48{fill:#ebdeed}.st49{fill:#cdb6d8}.st50{fill:url(#XMLID_8_)}.st51{fill:#8796cc}.st52{fill:url(#XMLID_9_)}.st53{fill:url(#XMLID_10_)}.st54{fill:#fff}.st55{fill:url(#XMLID_11_)}.st56{fill:#0e0d15}.st57{fill:url(#XMLID_12_)}.st58{fill:url(#XMLID_13_)}.st59{fill:url(#XMLID_14_)}.st60{fill:#624fa1}.st61{fill:#efe1ef}.st62{fill:url(#XMLID_15_)}.st63{fill:#e2d3e8}.st64{fill:url(#XMLID_16_)}.st65{fill:url(#XMLID_17_)}.st66{fill:url(#XMLID_18_)}.st67{fill:url(#XMLID_19_)}.st68{fill:url(#XMLID_20_)}.st69{fill:#8c86c0}.st70{fill:url(#XMLID_21_)}.st71{fill:url(#XMLID_22_)}.st72{fill:url(#XMLID_23_)}.st73{fill:url(#XMLID_24_)}.st74{fill:url(#XMLID_25_)}.st75{fill:url(#XMLID_26_)}.st76{fill:url(#XMLID_27_)}.st77{fill:url(#XMLID_28_)}.st78{fill:url(#XMLID_29_)}.st79{fill:url(#XMLID_30_)}.st80{fill:url(#XMLID_31_)}.st81{fill:url(#XMLID_32_)}.st82{fill:url(#XMLID_33_)}.st83{fill:url(#XMLID_34_)}.st84{fill:url(#XMLID_35_)}.st85{fill:url(#XMLID_36_)}.st86{fill:url(#XMLID_37_)}.st87{fill:url(#XMLID_38_)}.st88{fill:url(#XMLID_39_)}.st89{fill:url(#XMLID_40_)}.st90{fill:url(#XMLID_41_)}.st91{fill:#a29ece}.st92{fill:url(#XMLID_42_)}.st93{fill:url(#XMLID_43_)}.st94{fill:#a193c7}.st95{fill:url(#XMLID_44_)}.st96{fill:url(#XMLID_65_)}.st97{fill:url(#XMLID_66_)}.st98{fill:#84d2e0}.st99{opacity:.6;fill:url(#XMLID_67_)}.st100{fill:url(#XMLID_88_)}.st101{fill:url(#XMLID_95_)}.st102{fill:url(#XMLID_104_)}.st103{fill:url(#XMLID_123_)}.st104{fill:url(#XMLID_124_)}.st105{fill:url(#XMLID_125_)}.st106{fill:url(#XMLID_126_)}.st107{fill:url(#XMLID_127_)}.st108{fill:url(#XMLID_128_)}.st109{fill:url(#XMLID_129_)}.st110{fill:#ceecf8}.st111{fill:#437fc2}.st112{fill:#b7e5f9}.st113{fill:url(#XMLID_130_)}.st114{fill:url(#XMLID_131_)}.st115{fill:url(#XMLID_132_)}.st116{fill:url(#XMLID_133_)}.st117{fill:url(#XMLID_134_)}.st118{fill:url(#XMLID_135_)}.st119{fill:url(#XMLID_136_)}.st120{fill:url(#XMLID_137_)}.st121{fill:url(#XMLID_148_)}.st122{fill:url(#XMLID_149_)}.st123{fill:url(#XMLID_150_)}.st124{fill:url(#XMLID_151_)}.st125{fill:url(#XMLID_152_)}.st126{fill:url(#XMLID_153_)}.st127{fill:url(#XMLID_154_)}.st128{fill:url(#XMLID_155_)}.st129{fill:url(#XMLID_156_)}.st130{fill:url(#XMLID_157_)}.st131{fill:url(#XMLID_158_)}.st132{fill:url(#XMLID_159_)}.st133{fill:url(#XMLID_160_)}.st134{fill:url(#XMLID_161_)}.st135{fill:url(#XMLID_162_)}.st136{fill:url(#XMLID_163_)}.st137{fill:url(#XMLID_164_)}.st138{fill:url(#XMLID_165_)}.st139{fill:url(#XMLID_166_)}.st140{fill:url(#XMLID_167_)}.st141{fill:url(#XMLID_168_)}.st142{fill:url(#XMLID_169_)}.st143{fill:#6ccce0}.st144{fill:url(#XMLID_170_)}.st145{fill:url(#XMLID_171_)}.st146{fill:url(#XMLID_172_)}.st147{fill:url(#XMLID_173_)}.st148{fill:url(#XMLID_174_)}.st149{fill:url(#XMLID_175_)}.st150{fill:url(#XMLID_176_)}.st151{fill:url(#XMLID_177_)}.st152{fill:url(#XMLID_178_)}.st153{fill:url(#XMLID_179_)}.st154{fill:url(#XMLID_180_)}.st155{fill:url(#XMLID_181_)}.st156{fill:url(#XMLID_182_)}.st157{fill:url(#XMLID_183_)}.st158{fill:url(#XMLID_184_)}.st159{fill:url(#XMLID_185_)}.st160{fill:url(#XMLID_186_)}.st161{fill:url(#XMLID_187_)}.st162{fill:url(#XMLID_188_)}.st163{fill:url(#XMLID_189_)}.st164{fill:url(#XMLID_190_)}.st165{fill:url(#XMLID_191_)}</style><g id="_x31_5"><g id="XMLID_2534_"><path id="XMLID_3_" d="M1218.8,2584.1l-948-549.5c-129.7-75.2-113.2-206.1,36.9-292.4l801.6-460.9 c150.1-86.3,376.9-95.3,506.5-20.1l948,549.5c129.7,75.2,113.2,206.1-36.9,292.4L1725.3,2564 C1575.3,2650.3,1348.5,2659.3,1218.8,2584.1z" class="st0"/><path d="M1220.1,2579.7l-941.6-545.8c-128.8-74.7-112.4-204.7,36.6-290.4l796.2-457.8c149-85.7,374.3-94.7,503.1-20 l941.6,545.8c128.8,74.7,112.4,204.7-36.6,290.4l-796.2,457.8C1574.2,2645.4,1348.9,2654.3,1220.1,2579.7z" class="st1"/><path d="M1221.5,2575.2l-935.2-542.1c-127.9-74.2-111.7-203.3,36.4-288.4l790.7-454.7c148-85.1,371.8-94,499.7-19.8 l935.2,542.1c127.9,74.2,111.7,203.3-36.4,288.4l-790.7,454.7C1573.1,2640.5,1349.4,2649.4,1221.5,2575.2z" class="st2"/><path d="M1222.8,2570.7L294,2032.4c-127.1-73.7-110.9-201.9,36.1-286.4l785.3-451.6c147-84.5,369.2-93.4,496.3-19.7 l928.8,538.4c127.1,73.7,110.9,201.9-36.1,286.4L1719.1,2551C1572.1,2635.6,1349.9,2644.4,1222.8,2570.7z" class="st3"/><path d="M1224.1,2566.3l-922.3-534.7c-126.2-73.2-110.1-200.5,35.9-284.5l779.9-448.5c146-84,366.7-92.7,492.9-19.6 l922.3,534.7c126.2,73.2,110.1,200.5-35.9,284.5L1717,2546.7C1571,2630.7,1350.3,2639.4,1224.1,2566.3z" class="st4"/><path d="M1225.5,2561.8l-915.9-530.9c-125.3-72.6-109.4-199.1,35.6-282.5l774.5-445.4c145-83.4,364.1-92.1,489.4-19.4 l915.9,530.9c125.3,72.6,109.4,199.1-35.6,282.5l-774.5,445.4C1569.9,2625.7,1350.8,2634.4,1225.5,2561.8z" class="st5"/><path d="M1226.8,2557.3l-909.5-527.2c-124.4-72.1-108.6-197.7,35.4-280.5l769.1-442.2c144-82.8,361.6-91.4,486-19.3 l909.5,527.2c124.4,72.1,108.6,197.7-35.4,280.5L1712.8,2538C1568.9,2620.8,1351.3,2629.5,1226.8,2557.3z" class="st6"/><path d="M1228.2,2552.9L325,2029.3c-123.6-71.6-107.8-196.3,35.1-278.5l763.7-439.1c143-82.2,359-90.8,482.6-19.2 l903.1,523.5c123.6,71.6,107.8,196.3-35.1,278.5l-763.7,439.1C1567.8,2615.9,1351.7,2624.5,1228.2,2552.9z" class="st7"/><path d="M1229.5,2548.4l-896.7-519.8c-122.7-71.1-107.1-194.9,34.9-276.6l758.3-436c142-81.6,356.5-90.1,479.2-19 l896.7,519.8c122.7,71.1,107.1,194.9-34.9,276.6l-758.3,436C1566.7,2611,1352.2,2619.5,1229.5,2548.4z" class="st8"/><path d="M1230.8,2543.9l-890.3-516.1c-121.8-70.6-106.3-193.5,34.6-274.6l752.8-432.9c140.9-81,353.9-89.5,475.8-18.9 l890.3,516.1c121.8,70.6,106.3,193.6-34.6,274.6L1706.6,2525C1565.7,2606.1,1352.7,2614.5,1230.8,2543.9z" class="st9"/><path d="M1232.2,2539.5l-883.9-512.4c-120.9-70.1-105.5-192.2,34.4-272.6l747.4-429.8 c139.9-80.5,351.4-88.9,472.3-18.8l883.9,512.4c120.9,70.1,105.5,192.2-34.4,272.6l-747.4,429.8 C1564.6,2601.2,1353.1,2609.6,1232.2,2539.5z" class="st10"/><path d="M1233.5,2535L356,2026.3c-120.1-69.6-104.8-190.8,34.1-270.6l742-426.7c138.9-79.9,348.8-88.2,468.9-18.6 l877.5,508.7c120.1,69.6,104.8,190.8-34.1,270.6l-742,426.7C1563.5,2596.2,1353.6,2604.6,1233.5,2535z" class="st11"/><path d="M1234.9,2530.5l-871.1-505c-119.2-69.1-104-189.4,33.9-268.7l736.6-423.6c137.9-79.3,346.3-87.6,465.5-18.5 l871.1,505c119.2,69.1,104,189.4-33.9,268.7L1700.3,2512C1562.5,2591.3,1354.1,2599.6,1234.9,2530.5z" class="st12"/><path d="M1236.2,2526.1l-864.7-501.2c-118.3-68.6-103.2-188,33.6-266.7l731.2-420.5 c136.9-78.7,343.8-86.9,462.1-18.3l864.7,501.2c118.3,68.6,103.2,188-33.6,266.7l-731.2,420.5 C1561.4,2586.4,1354.5,2594.6,1236.2,2526.1z" class="st13"/><path d="M1237.5,2521.6L379.2,2024c-117.4-68.1-102.5-186.6,33.4-264.7l725.8-417.3 c135.9-78.1,341.2-86.3,458.6-18.2l858.3,497.5c117.4,68.1,102.5,186.6-33.4,264.7l-725.8,417.3 C1560.3,2581.5,1355,2589.7,1237.5,2521.6z" class="st14"/><path d="M1238.9,2517.1L387,2023.3c-116.6-67.6-101.7-185.2,33.1-262.7l720.3-414.2 c134.9-77.5,338.7-85.6,455.2-18.1l851.9,493.8c116.6,67.6,101.7,185.2-33.1,262.7L1694.1,2499 C1559.3,2576.6,1355.4,2584.7,1238.9,2517.1z" class="st15"/><path d="M1240.2,2512.6l-845.5-490.1c-115.7-67.1-101-183.8,32.9-260.8l714.9-411.1c133.8-77,336.1-85,451.8-17.9 l845.5,490.1c115.7,67.1,101,183.8-32.9,260.8L1692,2494.7C1558.2,2571.7,1355.9,2579.7,1240.2,2512.6z" class="st16"/><path d="M1241.6,2508.2l-839.1-486.4c-114.8-66.5-100.2-182.4,32.6-258.8l709.5-408 c132.8-76.4,333.6-84.4,448.4-17.8l839.1,486.4c114.8,66.5,100.2,182.4-32.6,258.8l-709.5,408 C1557.1,2566.8,1356.4,2574.7,1241.6,2508.2z" class="st17"/><path d="M1242.9,2503.7L410.2,2021c-113.9-66-99.4-181,32.4-256.8l704.1-404.9c131.8-75.8,331-83.7,445-17.7 l832.7,482.7c113.9,66,99.4,181-32.4,256.8L1687.9,2486C1556.1,2561.8,1356.8,2569.8,1242.9,2503.7z" class="st18"/><path d="M1244.3,2499.2l-826.3-479c-113-65.5-98.7-179.6,32.1-254.8l698.7-401.8c130.8-75.2,328.5-83.1,441.5-17.5 l826.3,479c113.1,65.5,98.7,179.6-32.1,254.8l-698.7,401.8C1555,2556.9,1357.3,2564.8,1244.3,2499.2z" class="st19"/><path d="M1245.6,2494.8l-819.9-475.3c-112.2-65-97.9-178.2,31.9-252.9l693.3-398.7c129.8-74.6,325.9-82.4,438.1-17.4 l819.9,475.3c112.2,65,97.9,178.2-31.9,252.9l-693.3,398.7C1553.9,2552,1357.8,2559.8,1245.6,2494.8z" class="st20"/><path d="M1246.9,2490.3l-813.5-471.6c-111.3-64.5-97.1-176.8,31.6-250.9l687.9-395.5c128.8-74,323.4-81.8,434.7-17.3 l813.5,471.6c111.3,64.5,97.1,176.8-31.6,250.9L1681.6,2473C1552.9,2547.1,1358.2,2554.8,1246.9,2490.3z" class="st21"/><path d="M1248.3,2485.8L441.2,2018c-110.4-64-96.4-175.5,31.4-248.9l682.4-392.4c127.8-73.5,320.8-81.1,431.3-17.1 l807.1,467.8c110.4,64,96.4,175.5-31.4,248.9l-682.4,392.4C1551.8,2542.2,1358.7,2549.8,1248.3,2485.8z" class="st22"/><path d="M1249.6,2481.4l-800.7-464.1c-109.5-63.5-95.6-174.1,31.1-246.9l677-389.3c126.7-72.9,318.3-80.5,427.8-17 l800.7,464.1c109.5,63.5,95.6,174.1-31.1,246.9l-677,389.3C1550.7,2537.3,1359.2,2544.9,1249.6,2481.4z" class="st23"/><path d="M1251,2476.9l-794.3-460.4c-108.7-63-94.8-172.7,30.9-245l671.6-386.2c125.7-72.3,315.8-79.8,424.4-16.9 l794.3,460.4c108.7,63,94.8,172.7-30.9,245L1675.4,2460C1549.6,2532.3,1359.6,2539.9,1251,2476.9z" class="st24"/><path d="M1252.3,2472.4l-787.9-456.7c-107.8-62.5-94.1-171.3,30.6-243l666.2-383.1c124.7-71.7,313.2-79.2,421-16.7 l787.9,456.7c107.8,62.5,94.1,171.3-30.6,243l-666.2,383.1C1548.6,2527.4,1360.1,2534.9,1252.3,2472.4z" class="st25"/><path d="M1253.6,2468l-781.5-453c-106.9-62-93.3-169.9,30.4-241l660.8-380c123.7-71.1,310.7-78.6,417.6-16.6 l781.5,453c106.9,62,93.3,169.9-30.4,241l-660.8,380C1547.5,2522.5,1360.6,2529.9,1253.6,2468z" class="st26"/><path d="M1255,2463.5l-775.1-449.3c-106-61.5-92.5-168.5,30.1-239l655.4-376.9c122.7-70.6,308.1-77.9,414.2-16.4 l775.1,449.3c106,61.5,92.5,168.5-30.1,239l-655.4,376.9C1546.4,2517.6,1361,2525,1255,2463.5z" class="st27"/><path d="M1256.3,2459l-768.7-445.6c-105.2-61-91.8-167.1,29.9-237.1l650-373.7c121.7-70,305.6-77.3,410.7-16.3 l768.7,445.6c105.2,61,91.8,167.1-29.9,237.1l-650,373.7C1545.4,2512.7,1361.5,2520,1256.3,2459z" class="st28"/><path d="M1257.7,2454.6l-762.3-441.9c-104.3-60.5-91-165.7,29.6-235.1l644.5-370.6c120.7-69.4,303-76.6,407.3-16.2 l762.3,441.9c104.3,60.5,91,165.7-29.6,235.1L1665,2438.4C1544.3,2507.8,1362,2515,1257.7,2454.6z" class="st29"/><path d="M1259,2450.1l-755.8-438.1c-103.4-59.9-90.2-164.3,29.4-233.1l639.1-367.5c119.7-68.8,300.5-76,403.9-16 l755.8,438.1c103.4,59.9,90.2,164.3-29.4,233.1l-639.1,367.5C1543.2,2502.9,1362.4,2510,1259,2450.1z" class="st30"/><path d="M1260.3,2445.6l-749.4-434.4c-102.5-59.4-89.5-162.9,29.2-231.1l633.7-364.4 c118.6-68.2,297.9-75.3,400.5-15.9l749.4,434.4c102.5,59.4,89.5,162.9-29.2,231.1l-633.7,364.4 C1542.2,2497.9,1362.9,2505.1,1260.3,2445.6z" class="st31"/><path d="M1261.7,2441.2l-743-430.7c-101.7-58.9-88.7-161.5,28.9-229.2l628.3-361.3c117.6-67.6,295.4-74.7,397-15.8 l743,430.7c101.7,58.9,88.7,161.5-28.9,229.2l-628.3,361.3C1541.1,2493,1363.3,2500.1,1261.7,2441.2z" class="st32"/><path d="M1263,2436.7l-736.6-427c-100.8-58.4-88-160.1,28.7-227.2l622.9-358.2c116.6-67.1,292.8-74.1,393.6-15.6 l736.6,427c100.8,58.4,88,160.1-28.7,227.2l-622.9,358.2C1540,2488.1,1363.8,2495.1,1263,2436.7z" class="st33"/><path d="M1264.4,2432.2l-730.2-423.3c-99.9-57.9-87.2-158.7,28.4-225.2l617.5-355.1 c115.6-66.5,290.3-73.4,390.2-15.5l730.2,423.3c99.9,57.9,87.2,158.7-28.4,225.2l-617.5,355.1 C1539,2483.2,1364.3,2490.1,1264.4,2432.2z" class="st34"/><path d="M1265.7,2427.7l-723.8-419.6c-99-57.4-86.4-157.4,28.2-223.2l612-351.9c114.6-65.9,287.7-72.8,386.8-15.4 l723.8,419.6c99,57.4,86.4,157.4-28.2,223.2l-612.1,352C1537.9,2478.3,1364.7,2485.2,1265.7,2427.7z" class="st35"/><path d="M1267.1,2423.3l-717.4-415.9c-98.2-56.9-85.7-156,27.9-221.3l606.6-348.8c113.6-65.3,285.2-72.1,383.4-15.2 L2285,1838c98.2,56.9,85.7,156-27.9,221.3l-606.6,348.8C1536.8,2473.4,1365.2,2480.2,1267.1,2423.3z" class="st36"/><path d="M1268.4,2418.8l-711-412.2c-97.3-56.4-84.9-154.6,27.7-219.3l601.2-345.7c112.6-64.7,282.7-71.5,379.9-15.1 l711,412.2c97.3,56.4,84.9,154.6-27.7,219.3l-601.2,345.7C1535.8,2468.4,1365.7,2475.2,1268.4,2418.8z" class="st37"/><path d="M1269.7,2414.3l-704.6-408.4c-96.4-55.9-84.1-153.2,27.4-217.3l595.8-342.6c111.5-64.1,280.1-70.8,376.5-15 l704.6,408.4c96.4,55.9,84.1,153.2-27.4,217.3l-595.8,342.6C1534.7,2463.5,1366.1,2470.2,1269.7,2414.3z" class="st38"/><path d="M1271.1,2409.9l-698.2-404.7c-95.5-55.4-83.4-151.8,27.2-215.3l590.4-339.5 c110.5-63.6,277.6-70.2,373.1-14.8l698.2,404.7c95.5,55.4,83.4,151.8-27.2,215.3l-590.4,339.5 C1533.6,2458.6,1366.6,2465.3,1271.1,2409.9z" class="st39"/><path d="M1272.4,2405.4l-691.8-401C486,1949.5,498,1854,607.5,1791l585-336.4c109.5-63,275-69.5,369.7-14.7 l691.8,401c94.7,54.9,82.6,150.4-26.9,213.4l-585,336.4C1532.6,2453.7,1367.1,2460.3,1272.4,2405.4z" class="st40"/><path id="XMLID_1_" d="M1273.8,2400.9l-685.4-397.3c-93.8-54.4-81.8-149,26.7-211.4l579.6-333.3 c108.5-62.4,272.5-68.9,366.2-14.5l685.4,397.3c93.8,54.4,81.8,149-26.7,211.4L1640,2386.4 C1531.5,2448.8,1367.5,2455.3,1273.8,2400.9z" class="st41"/></g><g id="XMLID_2531_"><linearGradient id="XMLID_5_" x1="1660.354" x2="1203.999" y1="1841.104" y2="1841.104" gradientUnits="userSpaceOnUse"><stop offset="0" style="stop-color:#a185bd"/><stop offset="1" style="stop-color:#c8add3"/></linearGradient><path id="XMLID_2533_" d="M2415.6,1851.2l-0.7-110.5l-133.8-27.2l-703.1-407.6c-104.9-60.8-288.4-53.5-409.8,16.3 l-648.5,372.9c-5.3,3.1-10.3,6.2-15.2,9.4l-85.3,26V1831l0.1,0c0.8,37.7,24,73.6,70.7,100.7l767,444.6 c104.9,60.8,288.4,53.5,409.8-16.3l648.5-372.9C2382.5,1948.3,2416.6,1898.3,2415.6,1851.2L2415.6,1851.2z" class="st42"/><linearGradient id="XMLID_6_" x1="5313.235" x2="466.147" y1="4012.498" y2="1186.008" gradientUnits="userSpaceOnUse"><stop offset="0" style="stop-color:#8575b5"/><stop offset="1" style="stop-color:#fef6f9"/></linearGradient><path id="XMLID_2532_" d="M1256.7,2275.8l-767-444.6c-104.9-60.8-91.6-166.7,29.8-236.6l648.5-372.9 c121.4-69.8,304.9-77.1,409.8-16.3l767,444.6c104.9,60.8,91.6,166.7-29.8,236.6l-648.5,372.9 C1545.1,2329.4,1361.6,2336.7,1256.7,2275.8z" class="st43"/></g></g><g id="_x31_4"><g id="XMLID_215_"><path id="XMLID_721_" d="M1346.2,1280.7v364.2c0,4,1.6,7.4,4.1,10l0,0l0.1,0.1c1.1,1.1,2.3,2,3.7,2.7l19.3,14 l8.6-22.2l306.4-175.1c7.8-4.5,12.7-12.8,12.7-21.8v-272.9L1346.2,1280.7z" class="st44"/><path id="XMLID_720_" d="M1720.7,1131.4v335.3c0,9-4.8,17.3-12.7,21.8l-320.4,183.1c-9.7,5.5-21.7-1.4-21.7-12.5 v-364.2L1720.7,1131.4z" class="st45"/><path id="XMLID_719_" d="M1825.5,1554.1v364.2c0,4,1.6,7.4,4.1,10l0,0l0.1,0.1c1.1,1.1,2.3,2,3.7,2.7l19.3,14 l8.6-22.2l306.4-175.1c7.8-4.5,12.7-12.8,12.7-21.8v-285.6L1825.5,1554.1z" class="st44"/><path id="XMLID_718_" d="M2200.1,1404.8v335.3c0,9-4.8,17.3-12.7,21.8L1867,1945c-9.7,5.5-21.8-1.4-21.8-12.5v-364.2 L2200.1,1404.8z" class="st45"/><linearGradient id="XMLID_7_" x1="1957.337" x2="1888.183" y1="1371.5" y2="1371.5" gradientUnits="userSpaceOnUse"><stop offset="0" style="stop-color:#8566ac"/><stop offset="1" style="stop-color:#b69fcc"/></linearGradient><path id="XMLID_717_" d="M2248,1460.4c0.1-0.6,0-1.2,0-1.8l0-17.9l-57.1-22.5l-540-313.1 c-12.6-7.3-34.6-6.5-49.1,1.8l-279.7,158.7l-17-4.9v25.1c0,0,0.1,0,0.2,0.1c0.5,4,3.2,7.8,8.2,10.8l588.8,341.4 c12.6,7.3,34.6,6.5,49.1-1.8l284.6-161.5C2243.2,1470.6,2247.2,1465.4,2248,1460.4L2248,1460.4L2248,1460.4z" class="st46"/><path id="XMLID_219_" d="M1902.4,1618.3l-588.8-341.4c-12.6-7.3-10.9-19.9,3.7-28.2l284.6-161.5 c14.6-8.3,36.6-9.1,49.1-1.8l588.8,341.4c12.6,7.3,10.9,19.9-3.7,28.2l-284.6,161.5C1936.9,1624.8,1914.9,1625.6,1902.4,1618.3z" class="st47"/><polygon id="XMLID_715_" points="1523.6 1544.5 1523.6 1524.8 1825.5 1699.6 1825.5 1718.7" class="st44"/><polygon id="XMLID_714_" points="1523.6 1524.8 1615.4 1471.1 1825.5 1591.7 1825.5 1699.6" class="st48"/></g><path id="XMLID_684_" d="M1857.2,1560.2L1393.5,1293c-8.1-4.7-7-12.8,2.4-18.2l231.6-131.4c9.4-5.3,23.6-5.9,31.7-1.2 l463.7,267.2c8.1,4.7,7,12.8-2.4,18.2L1888.9,1559C1879.5,1564.4,1865.3,1564.9,1857.2,1560.2z" class="st49"/></g><g id="_x31_3"><g id="XMLID_567_"><linearGradient id="XMLID_8_" x1="2142.068" x2="2058.809" y1="1356.433" y2="1356.433" gradientUnits="userSpaceOnUse"><stop offset="0" style="stop-color:#292973"/><stop offset="1" style="stop-color:#3d71b7"/></linearGradient><path id="XMLID_569_" d="M2058.9,1277v136.3c0,12.4,17.3,22.5,38.5,22.5c21.3,0,38.5-10.1,38.5-22.5V1277H2058.9z" class="st50"/><ellipse id="XMLID_568_" cx="2097.4" cy="1278.1" class="st51" rx="38.5" ry="22.5"/></g><g id="XMLID_564_"><linearGradient id="XMLID_9_" x1="2117.699" x2="2077.066" y1="1260.629" y2="1260.629" gradientUnits="userSpaceOnUse"><stop offset="0" style="stop-color:#292973"/><stop offset="1" style="stop-color:#3d71b7"/></linearGradient><path id="XMLID_566_" d="M2077.2,1235.5v38.5c0,6.5,9.1,11.8,20.2,11.8c11.2,0,20.2-5.3,20.2-11.8v-38.5H2077.2z" class="st52"/><ellipse id="XMLID_101_" cx="2097.4" cy="1235.7" class="st51" rx="20.2" ry="11.8"/></g></g><g id="_x31_2"><g id="XMLID_2_"><g id="XMLID_45_"><g id="XMLID_46_"><linearGradient id="XMLID_10_" x1="2022.766" x2="1934.594" y1="1480.545" y2="1480.545" gradientUnits="userSpaceOnUse"><stop offset="0" style="stop-color:#545daa"/><stop offset="1" style="stop-color:#71cac5"/></linearGradient><path id="XMLID_47_" d="M1931.3,1438l13.1,64.6c0,11.3,15,20.4,33.6,20.4c18.5,0,33.6-9.1,33.6-20.4l13.3-64.6 H1931.3z" class="st53"/><path id="XMLID_48_" d="M2024.5,1440c-2.1,13.6-22.9,23.8-46.5,23.8c-23.6,0-44.4-10.2-46.5-23.8 c-2.3-15,18.4-28.3,46.5-28.3C2006.2,1411.7,2026.9,1425,2024.5,1440z" class="st54"/></g></g><linearGradient id="XMLID_11_" x1="1951.882" x2="2019.308" y1="1437.721" y2="1437.721" gradientUnits="userSpaceOnUse"><stop offset="0" style="stop-color:#545daa"/><stop offset="1" style="stop-color:#71cac5"/></linearGradient><path id="XMLID_49_" d="M2014.4,1439.3c-1.7,9.3-17.9,16.2-36.4,16.2c-18.5,0-34.7-6.9-36.3-16.2 c-1.8-10.2,14.4-19.3,36.4-19.3C2000,1420,2016.2,1429,2014.4,1439.3z" class="st55"/><path id="XMLID_50_" d="M1946.5,1446.5c6.2-5.2,17.7-8.8,31.6-8.8c13.8,0,25.3,3.6,31.5,8.8c-6.4,5.4-18.4,9-31.6,9 C1964.8,1455.5,1952.9,1451.9,1946.5,1446.5z" class="st56"/></g><g id="XMLID_51_"><linearGradient id="XMLID_12_" x1="2024.319" x2="1996.86" y1="1493.346" y2="1493.346" gradientUnits="userSpaceOnUse"><stop offset="0" style="stop-color:#545daa"/><stop offset="1" style="stop-color:#71cac5"/></linearGradient><path id="XMLID_52_" d="M2012.6,1522.3c-3.7,0-7.8-1.8-12.3-5.5l-1.2-1c-2.6-2.2-3-6.1-0.8-8.8l0,0 c2.2-2.7,6.1-3,8.8-0.8l1.2,1c1.6,1.3,2.7,2,3.4,2.3c0.1-0.5,0.2-1.1,0.3-1.6l0-22c0-1.8-0.8-3.5-2.1-4.7c-1.5-1.3-5.5-3.6-8-5 c-2.7-1.5-3.9-4.9-2.8-7.8l0,0c1.4-3.4,5.4-5,8.6-3.2c6.6,3.5,16.7,10.4,16.7,18.7v24.2c-0.1,1.8-0.6,10.2-7.3,13.2 C2015.6,1522,2014.1,1522.3,2012.6,1522.3z" class="st57"/></g></g><g id="_x31_1"><g id="XMLID_826_"><g id="XMLID_411_"><linearGradient id="XMLID_13_" x1="1808.205" x2="1790.03" y1="1381.046" y2="1381.046" gradientUnits="userSpaceOnUse"><stop offset="0" style="stop-color:#2d2e88"/><stop offset="1" style="stop-color:#404a9f"/></linearGradient><path id="XMLID_824_" d="M1924,1413.2L1924,1413.2l0-8.3l-39,6.7l-247.4-142.3c-2.4-1.4-6.6-1.2-9.4,0.4 l-105.6,61.2l-9-2v8.7c0,0.1,0,0.3,0,0.4v0l0,0c0,0.8,0.5,1.7,1.6,2.3l265.4,152.6c2.4,1.4,6.6,1.2,9.4-0.4l131.8-76.2 C1923.2,1415.3,1924,1414.2,1924,1413.2z" class="st58"/><linearGradient id="XMLID_14_" x1="1918.521" x2="1510.332" y1="1583.231" y2="1141.102" gradientUnits="userSpaceOnUse"><stop offset="0" style="stop-color:#545daa"/><stop offset="1" style="stop-color:#71cac5"/></linearGradient><path id="XMLID_823_" d="M1780.6,1484.2l-265.4-152.6c-2.4-1.4-2.1-3.8,0.7-5.4l131.8-76.2c2.8-1.6,7-1.8,9.4-0.4 l265.4,152.6c2.4,1.4,2.1,3.8-0.7,5.4l-131.8,76.2C1787.1,1485.4,1783,1485.6,1780.6,1484.2z" class="st59"/><g id="XMLID_412_"><g id="XMLID_634_"><path id="XMLID_822_" d="M1628.7,1283.8l-7.5-4.3c-1.9-1.1-1.7-3,0.5-4.2l3-1.8c2.2-1.3,5.5-1.4,7.4-0.3l7.5,4.3 c1.9,1.1,1.7,3-0.5,4.3l-3,1.8C1633.9,1284.7,1630.6,1284.8,1628.7,1283.8z" class="st60"/><path id="XMLID_820_" d="M1647.4,1294.5l-7.5-4.3c-1.9-1.1-1.7-3,0.5-4.3l3-1.8c2.2-1.3,5.5-1.4,7.4-0.3l7.5,4.3 c1.9,1.1,1.7,3-0.5,4.3l-3,1.8C1652.6,1295.5,1649.3,1295.6,1647.4,1294.5z" class="st60"/><path id="XMLID_819_" d="M1666.1,1305.3l-7.5-4.3c-1.9-1.1-1.7-3,0.5-4.2l3-1.8c2.2-1.3,5.5-1.4,7.4-0.3l7.5,4.3 c1.9,1.1,1.7,3-0.5,4.2l-3,1.8C1671.3,1306.2,1668,1306.4,1666.1,1305.3z" class="st60"/><path id="XMLID_818_" d="M1684.8,1316.1l-7.5-4.3c-1.9-1.1-1.7-3,0.5-4.2l3-1.8c2.2-1.3,5.5-1.4,7.4-0.3l7.5,4.3 c1.9,1.1,1.7,3-0.5,4.3l-3,1.8C1690,1317,1686.7,1317.2,1684.8,1316.1z" class="st60"/><path id="XMLID_817_" d="M1703.5,1326.8l-7.5-4.3c-1.9-1.1-1.7-3,0.5-4.2l3-1.8c2.2-1.3,5.5-1.4,7.4-0.3l7.5,4.3 c1.9,1.1,1.7,3-0.5,4.3l-3,1.8C1708.7,1327.8,1705.4,1327.9,1703.5,1326.8z" class="st60"/><path id="XMLID_815_" d="M1722.2,1337.6l-7.5-4.3c-1.9-1.1-1.7-3,0.5-4.2l3-1.8c2.2-1.3,5.5-1.4,7.4-0.3l7.5,4.3 c1.9,1.1,1.7,3-0.5,4.3l-3,1.8C1727.4,1338.5,1724.1,1338.7,1722.2,1337.6z" class="st60"/><path id="XMLID_814_" d="M1740.9,1348.4l-7.5-4.3c-1.9-1.1-1.7-3,0.5-4.2l3-1.8c2.2-1.3,5.5-1.4,7.4-0.3l7.5,4.3 c1.9,1.1,1.7,3-0.5,4.2l-3,1.8C1746.1,1349.3,1742.8,1349.5,1740.9,1348.4z" class="st60"/><path id="XMLID_813_" d="M1759.6,1359.1l-7.5-4.3c-1.9-1.1-1.7-3,0.5-4.3l3-1.8c2.2-1.3,5.5-1.4,7.4-0.3l7.5,4.3 c1.9,1.1,1.7,3-0.5,4.2l-3,1.8C1764.8,1360.1,1761.5,1360.2,1759.6,1359.1z" class="st60"/><path id="XMLID_812_" d="M1778.3,1369.9l-7.5-4.3c-1.9-1.1-1.7-3,0.5-4.2l3-1.8c2.2-1.3,5.5-1.4,7.4-0.3l7.5,4.3 c1.9,1.1,1.7,3-0.5,4.2l-3,1.8C1783.5,1370.8,1780.2,1371,1778.3,1369.9z" class="st60"/><path id="XMLID_810_" d="M1797,1380.7l-7.5-4.3c-1.9-1.1-1.7-3,0.5-4.2l3-1.8c2.2-1.3,5.5-1.4,7.4-0.3l7.5,4.3 c1.9,1.1,1.7,3-0.5,4.2l-3,1.8C1802.2,1381.6,1798.9,1381.8,1797,1380.7z" class="st60"/><path id="XMLID_809_" d="M1816.2,1391.8l-7.5-4.3c-1.9-1.1-1.7-3,0.5-4.2l3-1.8c2.2-1.3,5.5-1.4,7.4-0.3l7.5,4.3 c1.9,1.1,1.7,3-0.5,4.2l-3,1.8C1821.4,1392.7,1818.1,1392.9,1816.2,1391.8z" class="st60"/><path id="XMLID_808_" d="M1834.9,1402.5l-7.5-4.3c-1.9-1.1-1.7-3,0.5-4.2l3-1.8c2.2-1.3,5.5-1.4,7.4-0.3l7.5,4.3 c1.9,1.1,1.7,3-0.5,4.2l-3,1.8C1840.1,1403.5,1836.8,1403.6,1834.9,1402.5z" class="st60"/><path id="XMLID_807_" d="M1853.6,1413.3l-7.5-4.3c-1.9-1.1-1.7-3,0.5-4.2l3-1.8c2.2-1.3,5.5-1.4,7.4-0.3l7.5,4.3 c1.9,1.1,1.7,3-0.5,4.2l-3,1.8C1858.8,1414.2,1855.5,1414.4,1853.6,1413.3z" class="st60"/><path id="XMLID_806_" d="M1872.3,1424.1l-7.5-4.3c-1.9-1.1-1.7-3,0.5-4.2l3-1.8c2.2-1.3,5.5-1.4,7.4-0.3l7.5,4.3 c1.9,1.1,1.7,3-0.5,4.3l-3,1.8C1877.5,1425,1874.2,1425.2,1872.3,1424.1z" class="st60"/><g id="XMLID_713_"><path id="XMLID_759_" d="M1607.3,1296.4l-7.9-4.5c-1.9-1.1-1.7-3,0.5-4.2l9.1-5.3c2.2-1.3,5.5-1.4,7.4-0.3 l7.9,4.5c1.9,1.1,1.7,3-0.5,4.2l-9.1,5.3C1612.4,1297.4,1609.1,1297.5,1607.3,1296.4z" class="st60"/><path id="XMLID_757_" d="M1625.9,1307.2l-7.9-4.5c-1.9-1.1-1.7-3,0.5-4.2l9.1-5.3c2.2-1.3,5.5-1.4,7.4-0.3 l7.9,4.5c1.9,1.1,1.7,3-0.5,4.2l-9.1,5.3C1631.1,1308.1,1627.8,1308.3,1625.9,1307.2z" class="st60"/><path id="XMLID_754_" d="M1644.8,1318.1l-7.9-4.5c-1.9-1.1-1.7-3,0.5-4.2l9.1-5.3c2.2-1.3,5.5-1.4,7.4-0.3 l7.9,4.5c1.9,1.1,1.7,3-0.5,4.2l-9.1,5.3C1650,1319,1646.7,1319.1,1644.8,1318.1z" class="st60"/><path id="XMLID_752_" d="M1663.5,1328.8l-7.9-4.5c-1.9-1.1-1.7-3,0.5-4.2l9.1-5.3c2.2-1.3,5.5-1.4,7.4-0.3 l7.9,4.5c1.9,1.1,1.7,3-0.5,4.2l-9.1,5.3C1668.7,1329.8,1665.4,1329.9,1663.5,1328.8z" class="st60"/><path id="XMLID_750_" d="M1682.2,1339.6l-7.9-4.5c-1.9-1.1-1.7-3,0.5-4.2l9.1-5.3c2.2-1.3,5.5-1.4,7.4-0.3 l7.9,4.5c1.9,1.1,1.7,3-0.5,4.2l-9.1,5.3C1687.4,1340.5,1684.1,1340.7,1682.2,1339.6z" class="st60"/><path id="XMLID_748_" d="M1701.1,1350.5l-7.9-4.5c-1.9-1.1-1.7-3,0.5-4.2l9.1-5.3c2.2-1.3,5.5-1.4,7.4-0.3 l7.9,4.5c1.9,1.1,1.7,3-0.5,4.2l-9.1,5.3C1706.3,1351.4,1703,1351.6,1701.1,1350.5z" class="st60"/><path id="XMLID_745_" d="M1719.8,1361.2l-7.9-4.5c-1.9-1.1-1.7-3,0.5-4.2l9.1-5.3c2.2-1.3,5.5-1.4,7.4-0.3 l7.9,4.5c1.9,1.1,1.7,3-0.5,4.2l-9.1,5.3C1725,1362.2,1721.7,1362.3,1719.8,1361.2z" class="st60"/><path id="XMLID_743_" d="M1738.7,1372.1l-7.9-4.5c-1.9-1.1-1.7-3,0.5-4.2l9.1-5.3c2.2-1.3,5.5-1.4,7.4-0.3 l7.9,4.5c1.9,1.1,1.7,3-0.5,4.2l-9.1,5.3C1743.9,1373.1,1740.6,1373.2,1738.7,1372.1z" class="st60"/><path id="XMLID_740_" d="M1757.4,1382.9l-7.9-4.5c-1.9-1.1-1.7-3,0.5-4.2l9.1-5.3c2.2-1.3,5.5-1.4,7.4-0.3 l7.9,4.5c1.9,1.1,1.7,3-0.5,4.2l-9.1,5.3C1762.6,1383.8,1759.3,1384,1757.4,1382.9z" class="st60"/><path id="XMLID_738_" d="M1776.1,1393.7l-7.9-4.5c-1.9-1.1-1.7-3,0.5-4.2l9.1-5.3c2.2-1.3,5.5-1.4,7.4-0.3 l7.9,4.5c1.9,1.1,1.7,3-0.5,4.2l-9.1,5.3C1781.3,1394.6,1778,1394.7,1776.1,1393.7z" class="st60"/><path id="XMLID_730_" d="M1795,1404.5l-7.9-4.5c-1.9-1.1-1.7-3,0.5-4.2l9.1-5.3c2.2-1.3,5.5-1.4,7.4-0.3l7.9,4.5 c1.9,1.1,1.7,3-0.5,4.2l-9.1,5.3C1800.1,1405.5,1796.8,1405.6,1795,1404.5z" class="st60"/><path id="XMLID_729_" d="M1813.6,1415.3l-7.9-4.5c-1.9-1.1-1.7-3,0.5-4.2l9.1-5.3c2.2-1.3,5.5-1.4,7.4-0.3 l7.9,4.5c1.9,1.1,1.7,3-0.5,4.2l-9.1,5.3C1818.8,1416.2,1815.5,1416.4,1813.6,1415.3z" class="st60"/><path id="XMLID_725_" d="M1832.3,1426.1l-7.9-4.5c-1.9-1.1-1.7-3,0.5-4.2l9.1-5.3c2.2-1.3,5.5-1.4,7.4-0.3 l7.9,4.5c1.9,1.1,1.7,3-0.5,4.2l-9.1,5.3C1837.5,1427,1834.2,1427.1,1832.3,1426.1z" class="st60"/><path id="XMLID_716_" d="M1851.2,1436.9l-7.9-4.5c-1.9-1.1-1.7-3,0.5-4.2l9.1-5.3c2.2-1.3,5.5-1.4,7.4-0.3 l7.9,4.5c1.9,1.1,1.7,3-0.5,4.2l-9.1,5.3C1856.4,1437.9,1853.1,1438,1851.2,1436.9z" class="st60"/></g><g id="XMLID_666_"><path id="XMLID_711_" d="M1585.7,1309.2l-7.9-4.5c-1.9-1.1-1.7-3,0.5-4.2l9.1-5.3c2.2-1.3,5.5-1.4,7.4-0.3 l7.9,4.5c1.9,1.1,1.7,3-0.5,4.2l-9.1,5.3C1590.9,1310.1,1587.6,1310.3,1585.7,1309.2z" class="st60"/><path id="XMLID_709_" d="M1604.4,1320l-7.9-4.5c-1.9-1.1-1.7-3,0.5-4.2l9.1-5.3c2.2-1.3,5.5-1.4,7.4-0.3l7.9,4.5 c1.9,1.1,1.7,3-0.5,4.2l-9.1,5.3C1609.6,1320.9,1606.3,1321,1604.4,1320z" class="st60"/><path id="XMLID_707_" d="M1623.3,1330.8l-7.9-4.5c-1.9-1.1-1.7-3,0.5-4.2l9.1-5.3c2.2-1.3,5.5-1.4,7.4-0.3 l7.9,4.5c1.9,1.1,1.7,3-0.5,4.2l-9.1,5.3C1628.4,1331.8,1625.1,1331.9,1623.3,1330.8z" class="st60"/><path id="XMLID_704_" d="M1641.9,1341.6l-7.9-4.5c-1.9-1.1-1.7-3,0.5-4.2l9.1-5.3c2.2-1.3,5.5-1.4,7.4-0.3 l7.9,4.5c1.9,1.1,1.7,3-0.5,4.2l-9.1,5.3C1647.1,1342.6,1643.8,1342.7,1641.9,1341.6z" class="st60"/><path id="XMLID_702_" d="M1660.6,1352.4l-7.9-4.5c-1.9-1.1-1.7-3,0.5-4.2l9.1-5.3c2.2-1.3,5.5-1.4,7.4-0.3 l7.9,4.5c1.9,1.1,1.7,3-0.5,4.2l-9.1,5.3C1665.8,1353.3,1662.5,1353.5,1660.6,1352.4z" class="st60"/><path id="XMLID_699_" d="M1679.5,1363.3l-7.9-4.5c-1.9-1.1-1.7-3,0.5-4.2l9.1-5.3c2.2-1.3,5.5-1.4,7.4-0.3 l7.9,4.5c1.9,1.1,1.7,3-0.5,4.2l-9.1,5.3C1684.7,1364.2,1681.4,1364.3,1679.5,1363.3z" class="st60"/><path id="XMLID_697_" d="M1698.2,1374l-7.9-4.5c-1.9-1.1-1.7-3,0.5-4.2l9.1-5.3c2.2-1.3,5.5-1.4,7.4-0.3l7.9,4.5 c1.9,1.1,1.7,3-0.5,4.2l-9.1,5.3C1703.4,1375,1700.1,1375.1,1698.2,1374z" class="st60"/><path id="XMLID_682_" d="M1717.1,1384.9l-7.9-4.5c-1.9-1.1-1.7-3,0.5-4.3l9.1-5.3c2.2-1.3,5.5-1.4,7.4-0.3 l7.9,4.5c1.9,1.1,1.7,3-0.5,4.2l-9.1,5.3C1722.3,1385.8,1719,1386,1717.1,1384.9z" class="st60"/><path id="XMLID_681_" d="M1735.8,1395.7l-7.9-4.5c-1.9-1.1-1.7-3,0.5-4.2l9.1-5.3c2.2-1.3,5.5-1.4,7.4-0.3 l7.9,4.5c1.9,1.1,1.7,3-0.5,4.3l-9.1,5.3C1741,1396.6,1737.7,1396.8,1735.8,1395.7z" class="st60"/><path id="XMLID_680_" d="M1754.5,1406.4l-7.9-4.5c-1.9-1.1-1.7-3,0.5-4.3l9.1-5.3c2.2-1.3,5.5-1.4,7.4-0.3 l7.9,4.5c1.9,1.1,1.7,3-0.5,4.2l-9.1,5.3C1759.7,1407.4,1756.4,1407.5,1754.5,1406.4z" class="st60"/><path id="XMLID_679_" d="M1773.4,1417.3l-7.9-4.5c-1.9-1.1-1.7-3,0.5-4.3l9.1-5.3c2.2-1.3,5.5-1.4,7.4-0.3 l7.9,4.5c1.9,1.1,1.7,3-0.5,4.2l-9.1,5.3C1778.6,1418.3,1775.3,1418.4,1773.4,1417.3z" class="st60"/><path id="XMLID_677_" d="M1792.1,1428.1l-7.9-4.5c-1.9-1.1-1.7-3,0.5-4.3l9.1-5.3c2.2-1.3,5.5-1.4,7.4-0.3 l7.9,4.5c1.9,1.1,1.7,3-0.5,4.2l-9.1,5.3C1797.3,1429,1794,1429.2,1792.1,1428.1z" class="st60"/><path id="XMLID_671_" d="M1810.8,1438.8l-7.9-4.5c-1.9-1.1-1.7-3,0.5-4.2l9.1-5.3c2.2-1.3,5.5-1.4,7.4-0.3 l7.9,4.5c1.9,1.1,1.7,3-0.5,4.2l-9.1,5.3C1816,1439.8,1812.7,1439.9,1810.8,1438.8z" class="st60"/><path id="XMLID_669_" d="M1829.7,1449.7l-7.9-4.5c-1.9-1.1-1.7-3,0.5-4.2l9.1-5.3c2.2-1.3,5.5-1.4,7.4-0.3 l7.9,4.5c1.9,1.1,1.7,3-0.5,4.2l-9.1,5.3C1834.8,1450.7,1831.5,1450.8,1829.7,1449.7z" class="st60"/></g><g id="XMLID_646_"><path id="XMLID_664_" d="M1581.6,1332.6l-26.4-15.2c-1.9-1.1-1.7-3,0.5-4.2l9.1-5.3c2.2-1.3,5.5-1.4,7.4-0.3 l26.4,15.2c1.9,1.1,1.7,3-0.5,4.2l-9.1,5.3C1586.8,1333.5,1583.5,1333.7,1581.6,1332.6z" class="st60"/><path id="XMLID_662_" d="M1600.7,1343.6l-7.9-4.5c-1.9-1.1-1.7-3,0.5-4.2l9.1-5.3c2.2-1.3,5.5-1.4,7.4-0.3 l7.9,4.5c1.9,1.1,1.7,3-0.5,4.2l-9.1,5.3C1605.9,1344.5,1602.6,1344.7,1600.7,1343.6z" class="st60"/><path id="XMLID_660_" d="M1619.4,1354.4l-7.9-4.5c-1.9-1.1-1.7-3,0.5-4.2l9.1-5.3c2.2-1.3,5.5-1.4,7.4-0.3 l7.9,4.5c1.9,1.1,1.7,3-0.5,4.2l-9.1,5.3C1624.6,1355.3,1621.3,1355.4,1619.4,1354.4z" class="st60"/><path id="XMLID_659_" d="M1638.1,1365.1l-7.9-4.5c-1.9-1.1-1.7-3,0.5-4.2l9.1-5.3c2.2-1.3,5.5-1.4,7.4-0.3 l7.9,4.5c1.9,1.1,1.7,3-0.5,4.2l-9.1,5.3C1643.3,1366.1,1640,1366.2,1638.1,1365.1z" class="st60"/><path id="XMLID_658_" d="M1657,1376l-7.9-4.5c-1.9-1.1-1.7-3,0.5-4.2l9.1-5.3c2.2-1.3,5.5-1.4,7.4-0.3l7.9,4.5 c1.9,1.1,1.7,3-0.5,4.2l-9.1,5.3C1662.2,1376.9,1658.9,1377.1,1657,1376z" class="st60"/><path id="XMLID_657_" d="M1675.7,1386.8l-7.9-4.5c-1.9-1.1-1.7-3,0.5-4.2l9.1-5.3c2.2-1.3,5.5-1.4,7.4-0.3 l7.9,4.5c1.9,1.1,1.7,3-0.5,4.2l-9.1,5.3C1680.9,1387.7,1677.6,1387.9,1675.7,1386.8z" class="st60"/><path id="XMLID_656_" d="M1694.6,1397.6l-7.9-4.5c-1.9-1.1-1.7-3,0.5-4.2l9.1-5.3c2.2-1.3,5.5-1.4,7.4-0.3 l7.9,4.5c1.9,1.1,1.7,3-0.5,4.2l-9.1,5.3C1699.8,1398.6,1696.5,1398.7,1694.6,1397.6z" class="st60"/><path id="XMLID_653_" d="M1713.3,1408.4l-7.9-4.5c-1.9-1.1-1.7-3,0.5-4.2l9.1-5.3c2.2-1.3,5.5-1.4,7.4-0.3 l7.9,4.5c1.9,1.1,1.7,3-0.5,4.2l-9.1,5.3C1718.4,1409.4,1715.1,1409.5,1713.3,1408.4z" class="st60"/><path id="XMLID_651_" d="M1732,1419.2l-7.9-4.5c-1.9-1.1-1.7-3,0.5-4.2l9.1-5.3c2.2-1.3,5.5-1.4,7.4-0.3l7.9,4.5 c1.9,1.1,1.7,3-0.5,4.2l-9.1,5.3C1737.1,1420.1,1733.8,1420.3,1732,1419.2z" class="st60"/><path id="XMLID_650_" d="M1750.8,1430.1l-7.9-4.5c-1.9-1.1-1.7-3,0.5-4.2l9.1-5.3c2.2-1.3,5.5-1.4,7.4-0.3 l7.9,4.5c1.9,1.1,1.7,3-0.5,4.2l-9.1,5.3C1756,1431,1752.7,1431.1,1750.8,1430.1z" class="st60"/><path id="XMLID_649_" d="M1769.5,1440.8l-7.9-4.5c-1.9-1.1-1.7-3,0.5-4.2l9.1-5.3c2.2-1.3,5.5-1.4,7.4-0.3 l7.9,4.5c1.9,1.1,1.7,3-0.5,4.2l-9.1,5.3C1774.7,1441.8,1771.4,1441.9,1769.5,1440.8z" class="st60"/><path id="XMLID_648_" d="M1788.2,1451.6l-7.9-4.5c-1.9-1.1-1.7-3,0.5-4.2l9.1-5.3c2.2-1.3,5.5-1.4,7.4-0.3 l7.9,4.5c1.9,1.1,1.7,3-0.5,4.2l-9.1,5.3C1793.4,1452.5,1790.1,1452.7,1788.2,1451.6z" class="st60"/><path id="XMLID_647_" d="M1785.3,1475.1l-7.9-4.5c-1.9-1.1-1.7-3,0.5-4.2l30.9-17.9c2.2-1.3,5.5-1.4,7.4-0.3 l7.9,4.5c1.9,1.1,1.7,3-0.5,4.2l-30.9,17.9C1790.5,1476,1787.2,1476.2,1785.3,1475.1z" class="st60"/></g><g id="XMLID_635_"><path id="XMLID_645_" d="M1541.3,1334.6l-7.9-4.5c-1.9-1.1-1.7-3,0.5-4.2l9.1-5.3c2.2-1.3,5.5-1.4,7.4-0.3 l7.9,4.5c1.9,1.1,1.7,3-0.5,4.3l-9.1,5.3C1546.5,1335.5,1543.2,1335.7,1541.3,1334.6z" class="st60"/><path id="XMLID_644_" d="M1560,1345.3l-7.9-4.5c-1.9-1.1-1.7-3,0.5-4.2l9.1-5.3c2.2-1.3,5.5-1.4,7.4-0.3l7.9,4.5 c1.9,1.1,1.7,3-0.5,4.2l-9.1,5.3C1565.2,1346.3,1561.9,1346.4,1560,1345.3z" class="st60"/><path id="XMLID_643_" d="M1578.9,1356.2l-7.9-4.5c-1.9-1.1-1.7-3,0.5-4.3l9.1-5.3c2.2-1.3,5.5-1.4,7.4-0.3 l7.9,4.5c1.9,1.1,1.7,3-0.5,4.2l-9.1,5.3C1584.1,1357.2,1580.8,1357.3,1578.9,1356.2z" class="st60"/><path id="XMLID_642_" d="M1597.6,1367l-7.9-4.5c-1.9-1.1-1.7-3,0.5-4.2l9.1-5.3c2.2-1.3,5.5-1.4,7.4-0.3l7.9,4.5 c1.9,1.1,1.7,3-0.5,4.2l-9.1,5.3C1602.8,1367.9,1599.5,1368.1,1597.6,1367z" class="st60"/><path id="XMLID_641_" d="M1672.7,1410.3l-64.3-37.1c-1.9-1.1-1.7-3,0.5-4.2l9.1-5.3c2.2-1.3,5.5-1.4,7.4-0.3 l64.4,37.1c1.9,1.1,1.7,3-0.5,4.2l-9.1,5.3C1677.9,1411.2,1674.6,1411.4,1672.7,1410.3z" class="st60"/><path id="XMLID_640_" d="M1691.4,1421l-7.9-4.5c-1.9-1.1-1.7-3,0.5-4.2l9.1-5.3c2.2-1.3,5.5-1.4,7.4-0.3l7.9,4.5 c1.9,1.1,1.7,3-0.5,4.2l-9.1,5.3C1696.6,1422,1693.3,1422.1,1691.4,1421z" class="st60"/><path id="XMLID_639_" d="M1710.1,1431.8l-7.9-4.5c-1.9-1.1-1.7-3,0.5-4.2l9.1-5.3c2.2-1.3,5.5-1.4,7.4-0.3 l7.9,4.5c1.9,1.1,1.7,3-0.5,4.2l-9.1,5.3C1715.3,1432.8,1712,1432.9,1710.1,1431.8z" class="st60"/><path id="XMLID_638_" d="M1729,1442.7l-7.9-4.5c-1.9-1.1-1.7-3,0.5-4.2l9.1-5.3c2.2-1.3,5.5-1.4,7.4-0.3l7.9,4.5 c1.9,1.1,1.7,3-0.5,4.2l-9.1,5.3C1734.2,1443.6,1730.9,1443.8,1729,1442.7z" class="st60"/><path id="XMLID_637_" d="M1747.7,1453.5l-7.9-4.5c-1.9-1.1-1.7-3,0.5-4.2l9.1-5.3c2.2-1.3,5.5-1.4,7.4-0.3 l7.9,4.5c1.9,1.1,1.7,3-0.5,4.3l-9.1,5.3C1752.9,1454.4,1749.6,1454.5,1747.7,1453.5z" class="st60"/><path id="XMLID_636_" d="M1766.4,1464.2l-7.9-4.5c-1.9-1.1-1.7-3,0.5-4.2l9.1-5.3c2.2-1.3,5.5-1.4,7.4-0.3 l7.9,4.5c1.9,1.1,1.7,3-0.5,4.2l-9.1,5.3C1771.6,1465.2,1768.3,1465.3,1766.4,1464.2z" class="st60"/></g></g><g id="XMLID_413_"><path id="XMLID_633_" d="M1628.4,1280.8l-7.5-4.3c-1.9-1.1-1.7-3,0.5-4.2l3-1.8c2.2-1.3,5.5-1.4,7.4-0.3l7.5,4.3 c1.9,1.1,1.7,3-0.5,4.2l-3,1.8C1633.6,1281.7,1630.3,1281.9,1628.4,1280.8z" class="st61"/><path id="XMLID_632_" d="M1647.1,1291.5l-7.5-4.3c-1.9-1.1-1.7-3,0.5-4.2l3-1.8c2.2-1.3,5.5-1.4,7.4-0.3l7.5,4.3 c1.9,1.1,1.7,3-0.5,4.3l-3,1.8C1652.3,1292.5,1649,1292.6,1647.1,1291.5z" class="st61"/><path id="XMLID_631_" d="M1665.8,1302.3l-7.5-4.3c-1.9-1.1-1.7-3,0.5-4.2l3-1.8c2.2-1.3,5.5-1.4,7.4-0.3l7.5,4.3 c1.9,1.1,1.7,3-0.5,4.2l-3,1.8C1671,1303.3,1667.7,1303.4,1665.8,1302.3z" class="st61"/><path id="XMLID_630_" d="M1684.5,1313.1l-7.5-4.3c-1.9-1.1-1.7-3,0.5-4.3l3-1.8c2.2-1.3,5.5-1.4,7.4-0.3l7.5,4.3 c1.9,1.1,1.7,3-0.5,4.2l-3,1.8C1689.7,1314,1686.4,1314.2,1684.5,1313.1z" class="st61"/><path id="XMLID_629_" d="M1703.2,1323.9l-7.5-4.3c-1.9-1.1-1.7-3,0.5-4.3l3-1.8c2.2-1.3,5.5-1.4,7.4-0.3l7.5,4.3 c1.9,1.1,1.7,3-0.5,4.2l-3,1.8C1708.4,1324.8,1705.1,1324.9,1703.2,1323.9z" class="st61"/><path id="XMLID_628_" d="M1721.9,1334.6l-7.5-4.3c-1.9-1.1-1.7-3,0.5-4.2l3-1.8c2.2-1.3,5.5-1.4,7.4-0.3l7.5,4.3 c1.9,1.1,1.7,3-0.5,4.2l-3,1.8C1727.1,1335.6,1723.8,1335.7,1721.9,1334.6z" class="st61"/><path id="XMLID_627_" d="M1740.6,1345.4l-7.5-4.3c-1.9-1.1-1.7-3,0.5-4.2l3-1.8c2.2-1.3,5.5-1.4,7.4-0.3l7.5,4.3 c1.9,1.1,1.7,3-0.5,4.3l-3,1.8C1745.7,1346.3,1742.5,1346.5,1740.6,1345.4z" class="st61"/><path id="XMLID_626_" d="M1759.3,1356.2l-7.5-4.3c-1.9-1.1-1.7-3,0.5-4.2l3-1.8c2.2-1.3,5.5-1.4,7.4-0.3l7.5,4.3 c1.9,1.1,1.7,3-0.5,4.2l-3,1.8C1764.4,1357.1,1761.1,1357.2,1759.3,1356.2z" class="st61"/><path id="XMLID_625_" d="M1778,1366.9l-7.5-4.3c-1.9-1.1-1.7-3,0.5-4.2l3-1.8c2.2-1.3,5.5-1.4,7.4-0.3l7.5,4.3 c1.9,1.1,1.7,3-0.5,4.2l-3,1.8C1783.1,1367.9,1779.8,1368,1778,1366.9z" class="st61"/><path id="XMLID_624_" d="M1796.6,1377.7l-7.5-4.3c-1.9-1.1-1.7-3,0.5-4.2l3-1.8c2.2-1.3,5.5-1.4,7.4-0.3l7.5,4.3 c1.9,1.1,1.7,3-0.5,4.2l-3,1.8C1801.8,1378.6,1798.5,1378.8,1796.6,1377.7z" class="st61"/><path id="XMLID_623_" d="M1815.9,1388.8l-7.5-4.3c-1.9-1.1-1.7-3,0.5-4.2l3-1.8c2.2-1.3,5.5-1.4,7.4-0.3l7.5,4.3 c1.9,1.1,1.7,3-0.5,4.2l-3,1.8C1821.1,1389.7,1817.8,1389.9,1815.9,1388.8z" class="st61"/><path id="XMLID_622_" d="M1834.6,1399.6l-7.5-4.3c-1.9-1.1-1.7-3,0.5-4.3l3-1.8c2.2-1.3,5.5-1.4,7.4-0.3l7.5,4.3 c1.9,1.1,1.7,3-0.5,4.2l-3,1.8C1839.8,1400.5,1836.5,1400.6,1834.6,1399.6z" class="st61"/><path id="XMLID_615_" d="M1853.3,1410.3l-7.5-4.3c-1.9-1.1-1.7-3,0.5-4.2l3-1.8c2.2-1.3,5.5-1.4,7.4-0.3l7.5,4.3 c1.9,1.1,1.7,3-0.5,4.2l-3,1.8C1858.5,1411.3,1855.2,1411.4,1853.3,1410.3z" class="st61"/><path id="XMLID_613_" d="M1872,1421.1l-7.5-4.3c-1.9-1.1-1.7-3,0.5-4.2l3-1.8c2.2-1.3,5.5-1.4,7.4-0.3l7.5,4.3 c1.9,1.1,1.7,3-0.5,4.2l-3,1.8C1877.2,1422,1873.9,1422.2,1872,1421.1z" class="st61"/><g id="XMLID_591_"><path id="XMLID_612_" d="M1606.9,1293.4l-7.9-4.5c-1.9-1.1-1.7-3,0.5-4.2l9.1-5.3c2.2-1.3,5.5-1.4,7.4-0.3 l7.9,4.5c1.9,1.1,1.7,3-0.5,4.2l-9.1,5.3C1612.1,1294.4,1608.8,1294.5,1606.9,1293.4z" class="st61"/><path id="XMLID_611_" d="M1625.6,1304.2l-7.9-4.5c-1.9-1.1-1.7-3,0.5-4.2l9.1-5.3c2.2-1.3,5.5-1.4,7.4-0.3 l7.9,4.5c1.9,1.1,1.7,3-0.5,4.2l-9.1,5.3C1630.8,1305.1,1627.5,1305.3,1625.6,1304.2z" class="st61"/><path id="XMLID_608_" d="M1644.5,1315.1l-7.9-4.5c-1.9-1.1-1.7-3,0.5-4.2l9.1-5.3c2.2-1.3,5.5-1.4,7.4-0.3 l7.9,4.5c1.9,1.1,1.7,3-0.5,4.2l-9.1,5.3C1649.7,1316,1646.4,1316.2,1644.5,1315.1z" class="st61"/><path id="XMLID_607_" d="M1663.2,1325.8l-7.9-4.5c-1.9-1.1-1.7-3,0.5-4.2l9.1-5.3c2.2-1.3,5.5-1.4,7.4-0.3 l7.9,4.5c1.9,1.1,1.7,3-0.5,4.2l-9.1,5.3C1668.4,1326.8,1665.1,1326.9,1663.2,1325.8z" class="st61"/><path id="XMLID_606_" d="M1681.9,1336.6l-7.9-4.5c-1.9-1.1-1.7-3,0.5-4.2l9.1-5.3c2.2-1.3,5.5-1.4,7.4-0.3 l7.9,4.5c1.9,1.1,1.7,3-0.5,4.2l-9.1,5.3C1687.1,1337.6,1683.8,1337.7,1681.9,1336.6z" class="st61"/><path id="XMLID_605_" d="M1700.8,1347.5l-7.9-4.5c-1.9-1.1-1.7-3,0.5-4.2l9.1-5.3c2.2-1.3,5.5-1.4,7.4-0.3 l7.9,4.5c1.9,1.1,1.7,3-0.5,4.2l-9.1,5.3C1706,1348.4,1702.7,1348.6,1700.8,1347.5z" class="st61"/><path id="XMLID_603_" d="M1719.5,1358.3l-7.9-4.5c-1.9-1.1-1.7-3,0.5-4.2l9.1-5.3c2.2-1.3,5.5-1.4,7.4-0.3 l7.9,4.5c1.9,1.1,1.7,3-0.5,4.2l-9.1,5.3C1724.6,1359.2,1721.4,1359.3,1719.5,1358.3z" class="st61"/><path id="XMLID_601_" d="M1738.3,1369.1l-7.9-4.5c-1.9-1.1-1.7-3,0.5-4.2l9.1-5.3c2.2-1.3,5.5-1.4,7.4-0.3 l7.9,4.5c1.9,1.1,1.7,3-0.5,4.2l-9.1,5.3C1743.5,1370.1,1740.2,1370.2,1738.3,1369.1z" class="st61"/><path id="XMLID_600_" d="M1757,1379.9l-7.9-4.5c-1.9-1.1-1.7-3,0.5-4.2l9.1-5.3c2.2-1.3,5.5-1.4,7.4-0.3l7.9,4.5 c1.9,1.1,1.7,3-0.5,4.2l-9.1,5.3C1762.2,1380.8,1758.9,1381,1757,1379.9z" class="st61"/><path id="XMLID_598_" d="M1775.7,1390.7l-7.9-4.5c-1.9-1.1-1.7-3,0.5-4.2l9.1-5.3c2.2-1.3,5.5-1.4,7.4-0.3 l7.9,4.5c1.9,1.1,1.7,3-0.5,4.2l-9.1,5.3C1780.9,1391.6,1777.6,1391.8,1775.7,1390.7z" class="st61"/><path id="XMLID_597_" d="M1794.6,1401.5l-7.9-4.5c-1.9-1.1-1.7-3,0.5-4.2l9.1-5.3c2.2-1.3,5.5-1.4,7.4-0.3 l7.9,4.5c1.9,1.1,1.7,3-0.5,4.2l-9.1,5.3C1799.8,1402.5,1796.5,1402.6,1794.6,1401.5z" class="st61"/><path id="XMLID_594_" d="M1813.3,1412.3l-7.9-4.5c-1.9-1.1-1.7-3,0.5-4.2l9.1-5.3c2.2-1.3,5.5-1.4,7.4-0.3 l7.9,4.5c1.9,1.1,1.7,3-0.5,4.2l-9.1,5.3C1818.5,1413.3,1815.2,1413.4,1813.3,1412.3z" class="st61"/><path id="XMLID_593_" d="M1832,1423.1l-7.9-4.5c-1.9-1.1-1.7-3,0.5-4.2l9.1-5.3c2.2-1.3,5.5-1.4,7.4-0.3l7.9,4.5 c1.9,1.1,1.7,3-0.5,4.2l-9.1,5.3C1837.2,1424,1833.9,1424.2,1832,1423.1z" class="st61"/><path id="XMLID_592_" d="M1850.9,1434l-7.9-4.5c-1.9-1.1-1.7-3,0.5-4.2l9.1-5.3c2.2-1.3,5.5-1.4,7.4-0.3l7.9,4.5 c1.9,1.1,1.7,3-0.5,4.2l-9.1,5.3C1856.1,1434.9,1852.8,1435,1850.9,1434z" class="st61"/></g><g id="XMLID_529_"><path id="XMLID_590_" d="M1585.3,1306.2l-7.9-4.5c-1.9-1.1-1.7-3,0.5-4.2l9.1-5.3c2.2-1.3,5.5-1.4,7.4-0.3 l7.9,4.5c1.9,1.1,1.7,3-0.5,4.2l-9.1,5.3C1590.5,1307.2,1587.2,1307.3,1585.3,1306.2z" class="st61"/><path id="XMLID_589_" d="M1604,1317l-7.9-4.5c-1.9-1.1-1.7-3,0.5-4.2l9.1-5.3c2.2-1.3,5.5-1.4,7.4-0.3l7.9,4.5 c1.9,1.1,1.7,3-0.5,4.2l-9.1,5.3C1609.2,1317.9,1605.9,1318.1,1604,1317z" class="st61"/><path id="XMLID_588_" d="M1622.9,1327.9l-7.9-4.5c-1.9-1.1-1.7-3,0.5-4.2l9.1-5.3c2.2-1.3,5.5-1.4,7.4-0.3 l7.9,4.5c1.9,1.1,1.7,3-0.5,4.2l-9.1,5.3C1628.1,1328.8,1624.8,1328.9,1622.9,1327.9z" class="st61"/><path id="XMLID_587_" d="M1641.6,1338.6l-7.9-4.5c-1.9-1.1-1.7-3,0.5-4.2l9.1-5.3c2.2-1.3,5.5-1.4,7.4-0.3 l7.9,4.5c1.9,1.1,1.7,3-0.5,4.2l-9.1,5.3C1646.8,1339.6,1643.5,1339.7,1641.6,1338.6z" class="st61"/><path id="XMLID_586_" d="M1660.3,1349.4l-7.9-4.5c-1.9-1.1-1.7-3,0.5-4.2l9.1-5.3c2.2-1.3,5.5-1.4,7.4-0.3 l7.9,4.5c1.9,1.1,1.7,3-0.5,4.2l-9.1,5.3C1665.5,1350.3,1662.2,1350.5,1660.3,1349.4z" class="st61"/><path id="XMLID_584_" d="M1679.2,1360.3l-7.9-4.5c-1.9-1.1-1.7-3,0.5-4.2l9.1-5.3c2.2-1.3,5.5-1.4,7.4-0.3 l7.9,4.5c1.9,1.1,1.7,3-0.5,4.2l-9.1,5.3C1684.4,1361.2,1681.1,1361.4,1679.2,1360.3z" class="st61"/><path id="XMLID_581_" d="M1697.9,1371l-7.9-4.5c-1.9-1.1-1.7-3,0.5-4.2l9.1-5.3c2.2-1.3,5.5-1.4,7.4-0.3l7.9,4.5 c1.9,1.1,1.7,3-0.5,4.2l-9.1,5.3C1703.1,1372,1699.8,1372.1,1697.9,1371z" class="st61"/><path id="XMLID_580_" d="M1716.8,1381.9l-7.9-4.5c-1.9-1.1-1.7-3,0.5-4.2l9.1-5.3c2.2-1.3,5.5-1.4,7.4-0.3 l7.9,4.5c1.9,1.1,1.7,3-0.5,4.2l-9.1,5.3C1722,1382.9,1718.7,1383,1716.8,1381.9z" class="st61"/><path id="XMLID_578_" d="M1735.5,1392.7l-7.9-4.5c-1.9-1.1-1.7-3,0.5-4.2l9.1-5.3c2.2-1.3,5.5-1.4,7.4-0.3 l7.9,4.5c1.9,1.1,1.7,3-0.5,4.2l-9.1,5.3C1740.7,1393.6,1737.4,1393.8,1735.5,1392.7z" class="st61"/><path id="XMLID_573_" d="M1754.2,1403.4l-7.9-4.5c-1.9-1.1-1.7-3,0.5-4.2l9.1-5.3c2.2-1.3,5.5-1.4,7.4-0.3 l7.9,4.5c1.9,1.1,1.7,3-0.5,4.2l-9.1,5.3C1759.3,1404.4,1756,1404.5,1754.2,1403.4z" class="st61"/><path id="XMLID_565_" d="M1773,1414.3l-7.9-4.5c-1.9-1.1-1.7-3,0.5-4.2l9.1-5.3c2.2-1.3,5.5-1.4,7.4-0.3l7.9,4.5 c1.9,1.1,1.7,3-0.5,4.2l-9.1,5.3C1778.2,1415.3,1774.9,1415.4,1773,1414.3z" class="st61"/><path id="XMLID_541_" d="M1791.7,1425.1l-7.9-4.5c-1.9-1.1-1.7-3,0.5-4.2l9.1-5.3c2.2-1.3,5.5-1.4,7.4-0.3 l7.9,4.5c1.9,1.1,1.7,3-0.5,4.2l-9.1,5.3C1796.9,1426,1793.6,1426.2,1791.7,1425.1z" class="st61"/><path id="XMLID_539_" d="M1810.4,1435.9l-7.9-4.5c-1.9-1.1-1.7-3,0.5-4.2l9.1-5.3c2.2-1.3,5.5-1.4,7.4-0.3 l7.9,4.5c1.9,1.1,1.7,3-0.5,4.2l-9.1,5.3C1815.6,1436.8,1812.3,1436.9,1810.4,1435.9z" class="st61"/><path id="XMLID_538_" d="M1829.3,1446.7l-7.9-4.5c-1.9-1.1-1.7-3,0.5-4.2l9.1-5.3c2.2-1.3,5.5-1.4,7.4-0.3 l7.9,4.5c1.9,1.1,1.7,3-0.5,4.2l-9.1,5.3C1834.5,1447.7,1831.2,1447.8,1829.3,1446.7z" class="st61"/></g><g id="XMLID_454_"><path id="XMLID_527_" d="M1581.3,1329.6l-26.4-15.2c-1.9-1.1-1.7-3,0.5-4.2l9.1-5.3c2.2-1.3,5.5-1.4,7.4-0.3 l26.4,15.2c1.9,1.1,1.7,3-0.5,4.2l-9.1,5.3C1586.5,1330.6,1583.2,1330.7,1581.3,1329.6z" class="st61"/><path id="XMLID_517_" d="M1600.4,1340.6l-7.9-4.5c-1.9-1.1-1.7-3,0.5-4.2l9.1-5.3c2.2-1.3,5.5-1.4,7.4-0.3 l7.9,4.5c1.9,1.1,1.7,3-0.5,4.2l-9.1,5.3C1605.6,1341.6,1602.3,1341.7,1600.4,1340.6z" class="st61"/><path id="XMLID_502_" d="M1619.1,1351.4l-7.9-4.5c-1.9-1.1-1.7-3,0.5-4.2l9.1-5.3c2.2-1.3,5.5-1.4,7.4-0.3 l7.9,4.5c1.9,1.1,1.7,3-0.5,4.2l-9.1,5.3C1624.3,1352.3,1621,1352.5,1619.1,1351.4z" class="st61"/><path id="XMLID_497_" d="M1637.8,1362.1l-7.9-4.5c-1.9-1.1-1.7-3,0.5-4.2l9.1-5.3c2.2-1.3,5.5-1.4,7.4-0.3 l7.9,4.5c1.9,1.1,1.7,3-0.5,4.3l-9.1,5.3C1643,1363.1,1639.7,1363.2,1637.8,1362.1z" class="st61"/><path id="XMLID_494_" d="M1656.7,1373l-7.9-4.5c-1.9-1.1-1.7-3,0.5-4.2l9.1-5.3c2.2-1.3,5.5-1.4,7.4-0.3l7.9,4.5 c1.9,1.1,1.7,3-0.5,4.2l-9.1,5.3C1661.8,1374,1658.5,1374.1,1656.7,1373z" class="st61"/><path id="XMLID_479_" d="M1675.3,1383.8l-7.9-4.5c-1.9-1.1-1.7-3,0.5-4.2l9.1-5.3c2.2-1.3,5.5-1.4,7.4-0.3 l7.9,4.5c1.9,1.1,1.7,3-0.5,4.2l-9.1,5.3C1680.5,1384.7,1677.2,1384.9,1675.3,1383.8z" class="st61"/><path id="XMLID_474_" d="M1694.2,1394.7l-7.9-4.5c-1.9-1.1-1.7-3,0.5-4.2l9.1-5.3c2.2-1.3,5.5-1.4,7.4-0.3 l7.9,4.5c1.9,1.1,1.7,3-0.5,4.2l-9.1,5.3C1699.4,1395.6,1696.1,1395.8,1694.2,1394.7z" class="st61"/><path id="XMLID_473_" d="M1712.9,1405.4l-7.9-4.5c-1.9-1.1-1.7-3,0.5-4.2l9.1-5.3c2.2-1.3,5.5-1.4,7.4-0.3 l7.9,4.5c1.9,1.1,1.7,3-0.5,4.2l-9.1,5.3C1718.1,1406.4,1714.8,1406.5,1712.9,1405.4z" class="st61"/><path id="XMLID_472_" d="M1731.6,1416.2l-7.9-4.5c-1.9-1.1-1.7-3,0.5-4.2l9.1-5.3c2.2-1.3,5.5-1.4,7.4-0.3 l7.9,4.5c1.9,1.1,1.7,3-0.5,4.2l-9.1,5.3C1736.8,1417.1,1733.5,1417.3,1731.6,1416.2z" class="st61"/><path id="XMLID_471_" d="M1750.5,1427.1l-7.9-4.5c-1.9-1.1-1.7-3,0.5-4.2l9.1-5.3c2.2-1.3,5.5-1.4,7.4-0.3 l7.9,4.5c1.9,1.1,1.7,3-0.5,4.2l-9.1,5.3C1755.7,1428,1752.4,1428.2,1750.5,1427.1z" class="st61"/><path id="XMLID_470_" d="M1769.2,1437.8l-7.9-4.5c-1.9-1.1-1.7-3,0.5-4.2l9.1-5.3c2.2-1.3,5.5-1.4,7.4-0.3 l7.9,4.5c1.9,1.1,1.7,3-0.5,4.2l-9.1,5.3C1774.4,1438.8,1771.1,1438.9,1769.2,1437.8z" class="st61"/><path id="XMLID_468_" d="M1787.9,1448.6l-7.9-4.5c-1.9-1.1-1.7-3,0.5-4.2l9.1-5.3c2.2-1.3,5.5-1.4,7.4-0.3 l7.9,4.5c1.9,1.1,1.7,3-0.5,4.2l-9.1,5.3C1793.1,1449.6,1789.8,1449.7,1787.9,1448.6z" class="st61"/><path id="XMLID_455_" d="M1785,1472.1l-7.9-4.5c-1.9-1.1-1.7-3,0.5-4.2l30.9-17.9c2.2-1.3,5.5-1.4,7.4-0.3 l7.9,4.5c1.9,1.1,1.7,3-0.5,4.2l-30.9,17.9C1790.1,1473.1,1786.8,1473.2,1785,1472.1z" class="st61"/></g><g id="XMLID_414_"><path id="XMLID_453_" d="M1541,1331.6l-7.9-4.5c-1.9-1.1-1.7-3,0.5-4.2l9.1-5.3c2.2-1.3,5.5-1.4,7.4-0.3l7.9,4.5 c1.9,1.1,1.7,3-0.5,4.3l-9.1,5.3C1546.2,1332.5,1542.9,1332.7,1541,1331.6z" class="st61"/><path id="XMLID_452_" d="M1559.7,1342.4l-7.9-4.5c-1.9-1.1-1.7-3,0.5-4.2l9.1-5.3c2.2-1.3,5.5-1.4,7.4-0.3 l7.9,4.5c1.9,1.1,1.7,3-0.5,4.2l-9.1,5.3C1564.9,1343.3,1561.6,1343.5,1559.7,1342.4z" class="st61"/><path id="XMLID_449_" d="M1578.6,1353.2l-7.9-4.5c-1.9-1.1-1.7-3,0.5-4.2l9.1-5.3c2.2-1.3,5.5-1.4,7.4-0.3 l7.9,4.5c1.9,1.1,1.7,3-0.5,4.3l-9.1,5.3C1583.7,1354.2,1580.4,1354.3,1578.6,1353.2z" class="st61"/><path id="XMLID_448_" d="M1597.2,1364l-7.9-4.5c-1.9-1.1-1.7-3,0.5-4.3l9.1-5.3c2.2-1.3,5.5-1.4,7.4-0.3l7.9,4.5 c1.9,1.1,1.7,3-0.5,4.2l-9.1,5.3C1602.4,1365,1599.1,1365.1,1597.2,1364z" class="st61"/><path id="XMLID_447_" d="M1672.4,1407.3l-64.4-37.1c-1.9-1.1-1.7-3,0.5-4.2l9.1-5.3c2.2-1.3,5.5-1.4,7.4-0.3 l64.4,37.1c1.9,1.1,1.7,3-0.5,4.2l-9.1,5.3C1677.6,1408.2,1674.3,1408.4,1672.4,1407.3z" class="st61"/><path id="XMLID_419_" d="M1691.1,1418.1l-7.9-4.5c-1.9-1.1-1.7-3,0.5-4.2l9.1-5.3c2.2-1.3,5.5-1.4,7.4-0.3 l7.9,4.5c1.9,1.1,1.7,3-0.5,4.3l-9.1,5.3C1696.3,1419,1693,1419.2,1691.1,1418.1z" class="st61"/><path id="XMLID_418_" d="M1709.8,1428.8l-7.9-4.5c-1.9-1.1-1.7-3,0.5-4.2l9.1-5.3c2.2-1.3,5.5-1.4,7.4-0.3 l7.9,4.5c1.9,1.1,1.7,3-0.5,4.3l-9.1,5.3C1715,1429.8,1711.7,1429.9,1709.8,1428.8z" class="st61"/><path id="XMLID_417_" d="M1728.7,1439.7l-7.9-4.5c-1.9-1.1-1.7-3,0.5-4.2l9.1-5.3c2.2-1.3,5.5-1.4,7.4-0.3 l7.9,4.5c1.9,1.1,1.7,3-0.5,4.3l-9.1,5.3C1733.9,1440.7,1730.6,1440.8,1728.7,1439.7z" class="st61"/><path id="XMLID_416_" d="M1747.4,1450.5l-7.9-4.5c-1.9-1.1-1.7-3,0.5-4.3l9.1-5.3c2.2-1.3,5.5-1.4,7.4-0.3 l7.9,4.5c1.9,1.1,1.7,3-0.5,4.2l-9.1,5.3C1752.6,1451.4,1749.3,1451.6,1747.4,1450.5z" class="st61"/><path id="XMLID_415_" d="M1766.1,1461.2l-7.9-4.5c-1.9-1.1-1.7-3,0.5-4.2l9.1-5.3c2.2-1.3,5.5-1.4,7.4-0.3 l7.9,4.5c1.9,1.1,1.7,3-0.5,4.2l-9.1,5.3C1771.2,1462.2,1768,1462.3,1766.1,1461.2z" class="st61"/></g></g></g></g><ellipse id="XMLID_825_" cx="1658.2" cy="1265.1" class="st61" rx="6.7" ry="4.3"/></g><ellipse id="XMLID_915_" cx="1670.4" cy="1272.4" class="st61" rx="6.7" ry="4.3"/></g><g id="_x31_0"><path id="XMLID_147_" d="M1248.7,1142.2v372.3c0,4.1-1.6,7.6-4.2,10.2l0,0l-0.1,0.1c-1.1,1.1-2.4,2-3.7,2.7 l-19.6,14.3l-8.8-22.7l-311.7-178.9c-8-4.6-12.9-13.1-12.9-22.2l71.4-193.3L1248.7,1142.2z" class="st44"/><path id="XMLID_146_" d="M985.7,1124.6l-118.1,207.8c0,9.2,4.9,17.7,12.9,22.2l112.8,201.3l170.7-38.5l42.4,24.3 c9.8,5.7,22.1-1.4,22.1-12.8v-372.3L985.7,1124.6z" class="st45"/><path id="XMLID_145_" d="M1005.8,1283.7V1656c0,4.1-1.6,7.6-4.2,10.2l0,0l-0.1,0.1c-1.1,1.1-2.4,2-3.7,2.7l-19.6,14.3 l-8.8-22.7l-311.7-178.9c-8-4.6-12.9-13.1-12.9-22.2l78.6-204.7L1005.8,1283.7z" class="st44"/><path id="XMLID_144_" d="M985.7,1298.2v372.3c0,11.3-12.3,18.4-22.1,12.8l-68.2-39.2l-129.9,108.7l-9,11.2v-199.6 l-118.8-68.2c-8-4.6-12.9-13.1-12.9-22.2l187.7-219.2L985.7,1298.2z" class="st45"/><path id="XMLID_143_" d="M765.5,1410.5v372.3c0,4.1-1.6,7.6-4.2,10.2l0,0l-0.1,0.1c-1.1,1.1-2.4,2-3.7,2.7l-19.6,14.3 l-8.8-22.7l-181.5-104.8c-8-4.6-12.9-13.1-12.9-22.2v-291.8L765.5,1410.5z" class="st44"/><path id="XMLID_142_" d="M514.7,1332.1v342.7c0,9.2,4.9,17.7,12.9,22.2l195.7,113c9.8,5.7,22.1-1.4,22.1-12.8V1425 L514.7,1332.1z" class="st45"/><linearGradient id="XMLID_15_" x1="708.705" x2="647.94" y1="1258.276" y2="1258.276" gradientUnits="userSpaceOnUse"><stop offset="0" style="stop-color:#8566ac"/><stop offset="1" style="stop-color:#b69fcc"/></linearGradient><path id="XMLID_141_" d="M481.8,1380.6c-0.1-0.6,0-1.2,0-1.9l0-18.3l42.2-14.7l544.2-317.1c12.8-7.4,35.2-6.6,50,1.8 l154.3,88.1l17.3-5.1v25.6c0,0-0.1,0-0.2,0.1c-0.5,4.1-3.2,8-8.4,11l-578,337.8c-12.8,7.4-35.2,6.6-50-1.8L494,1395.2 C486.7,1391,482.6,1385.8,481.8,1380.6L481.8,1380.6L481.8,1380.6z" class="st62"/><path id="XMLID_140_" d="M703.2,1467.9l578-337.8c12.8-7.4,11.1-20.3-3.7-28.8l-159.3-90.9c-14.8-8.5-37.2-9.3-50-1.8 l-578,337.8c-12.8,7.4-11.1,20.3,3.7,28.8l159.3,90.9C668.1,1474.5,690.4,1475.3,703.2,1467.9z" class="st47"/><g id="XMLID_107_"><polygon id="XMLID_139_" points="969.8 1331.6 969.8 1430.4 765.5 1547.8 765.5 1450.7" class="st63"/></g><g id="XMLID_103_"><polygon id="XMLID_106_" points="969.8 1439.7 969.8 1538.5 765.5 1655.9 765.5 1558.8" class="st63"/></g><g id="XMLID_98_"><polygon id="XMLID_102_" points="969.8 1547.8 969.8 1646.6 765.5 1763.9 765.5 1666.8" class="st63"/></g><g id="XMLID_94_"><polygon id="XMLID_97_" points="1210.2 1191.6 1210.2 1290.4 1005.8 1407.8 1005.8 1310.7" class="st63"/></g><g id="XMLID_90_"><polygon id="XMLID_93_" points="1210.4 1298.5 1210.4 1397.3 1006.1 1514.7 1006.1 1417.6" class="st63"/></g><g id="XMLID_86_"><polygon id="XMLID_89_" points="1210.4 1406.6 1210.4 1505.4 1006.1 1622.8 1006.1 1525.7" class="st63"/></g></g><g id="_x39__1_"><g id="XMLID_545_"><linearGradient id="XMLID_16_" x1="822.789" x2="725.082" y1="1885.457" y2="1885.457" gradientUnits="userSpaceOnUse"><stop offset="0" style="stop-color:#8566ac"/><stop offset="1" style="stop-color:#b69fcc"/></linearGradient><path id="XMLID_84_" d="M725.1,1850.3l9.7,48.6c0,12,17.5,21.8,39.2,21.8c21.6,0,39.2-9.7,39.2-21.8l9.7-48.6H725.1z" class="st64"/><linearGradient id="XMLID_17_" x1="829.411" x2="718.459" y1="1835.702" y2="1835.702" gradientUnits="userSpaceOnUse"><stop offset="0" style="stop-color:#aa87be"/><stop offset="1" style="stop-color:#c8aed3"/></linearGradient><path id="XMLID_83_" d="M829.2,1809.2l-25.5,0.6c-8.6-3-18.8-4.8-29.7-4.8c-12.5,0-24,2.3-33.3,6.2l-22.2,0.5v24.1 c0,17,24.8,30.8,55.5,30.8c30.6,0,55.5-13.8,55.5-30.8L829.2,1809.2z" class="st65"/><linearGradient id="XMLID_18_" x1="718.459" x2="829.411" y1="1802.238" y2="1802.238" gradientUnits="userSpaceOnUse"><stop offset="0" style="stop-color:#ae4925"/><stop offset="1" style="stop-color:#66230f"/></linearGradient><path id="XMLID_80_" d="M773.9,1804.9c22.9,0,42.6,7.7,51.1,18.7c2.8-3.7,4.4-7.8,4.4-12c0-17-24.8-30.8-55.5-30.8 c-30.6,0-55.5,13.8-55.5,30.8c0,4.3,1.6,8.3,4.4,12C731.3,1812.6,751,1804.9,773.9,1804.9z" class="st66"/><path id="XMLID_54_" d="M773.9,1780c-31.5,0-57,14.2-57,31.6c0,17.5,25.5,31.6,57,31.6c31.5,0,57-14.2,57-31.6 C830.9,1794.1,805.4,1780,773.9,1780z M773.9,1836.4c-24.6,0-44.6-11.1-44.6-24.7c0-13.7,20-24.7,44.6-24.7 c24.6,0,44.6,11.1,44.6,24.7C818.5,1825.3,798.6,1836.4,773.9,1836.4z" class="st63"/></g><g id="XMLID_53_"><radialGradient id="XMLID_19_" cx="714.765" cy="1494.451" r="351.702" gradientUnits="userSpaceOnUse"><stop offset="0" style="stop-color:#70cac5"/><stop offset="1" style="stop-color:#4755a5"/></radialGradient><path id="XMLID_544_" d="M851.6,1734.8h0.2l-45-241.9h-0.1c-2.4-15.9-16-28-32.6-28c-16.6,0-30.2,12.3-32.6,28.2 h-0.5l-41.9,241.7h0.2c-1.6,6.3-2.7,12.7-2.7,19.5c0,43.5,35.3,78.8,78.8,78.8c43.5,0,78.8-35.3,78.8-78.8 C854.3,1747.5,853.2,1741,851.6,1734.8z" class="st67"/></g></g><g id="_x38_"><g id="XMLID_87_"><g id="_x36__1_"><g id="XMLID_579_"><g id="_x39_"><linearGradient id="XMLID_20_" x1="952.413" x2="942.896" y1="1215.414" y2="1198.645" gradientUnits="userSpaceOnUse"><stop offset="0" style="stop-color:#585aa7"/><stop offset="1" style="stop-color:#d7bfdc"/></linearGradient><path id="XMLID_282_" d="M1044.2,1140.3l-125-73.8c-2.4-1.4-4.6-1.5-6.3-0.6l0,0l0,0c0,0-0.1,0-0.1,0L775.5,1145 l138,135l136.7-78.7c2.3-1.1,3.8-4,3.8-8.2l0.2-33.7C1054.1,1152,1049.7,1143.5,1044.2,1140.3z" class="st68"/><path id="XMLID_281_" d="M907.1,1279.4l-125-73.8c-5.5-3.2-9.9-11.7-9.9-19.1l0.2-33.7c0-7.3,4.5-10.7,10-7.5 l125,73.8c5.5,3.2,9.9,11.7,9.9,19.1l-0.2,33.7C917.1,1279.2,912.6,1282.6,907.1,1279.4z" class="st69"/><linearGradient id="XMLID_21_" x1="839.788" x2="846.896" y1="1253.013" y2="1183.344" gradientUnits="userSpaceOnUse"><stop offset="0" style="stop-color:#4755a5"/><stop offset="1" style="stop-color:#70cac5"/></linearGradient><path id="XMLID_280_" d="M900.3,1263.9l-112.8-66.8c-3.5-2-6.4-7.5-6.4-12.2l0-19.7c0-4.7,2.9-6.9,6.4-4.8 l112.8,66.8c3.5,2,6.4,7.5,6.4,12.2l0,19.7C906.7,1263.7,903.8,1265.9,900.3,1263.9z" class="st70"/><linearGradient id="XMLID_22_" x1="811.169" x2="820.005" y1="1172.874" y2="1186.28" gradientUnits="userSpaceOnUse"><stop offset="0" style="stop-color:#6055a4"/><stop offset="1" style="stop-color:#cfc0df"/></linearGradient><path id="XMLID_279_" d="M798.1,1191.6c-3.5-2-6.4-7.5-6.4-12.2l0-16.5l-4.2-2.4c-3.5-2-6.4,0.1-6.4,4.8l0,19.7 c0,4.7,2.8,10.2,6.4,12.2l112.8,66.8c3.5,2,6.4-0.1,6.4-4.8l0-3.1L798.1,1191.6z" class="st71"/></g><g id="XMLID_478_"><g id="XMLID_354_"><linearGradient id="XMLID_23_" x1="1094.872" x2="1041.293" y1="1166.593" y2="1179.268" gradientUnits="userSpaceOnUse"><stop offset="0" style="stop-color:#70cac5"/><stop offset="1" style="stop-color:#36489e"/></linearGradient><path id="XMLID_355_" d="M1037.9,1180.2L1037.9,1180.2c-0.6-2.7,1-5.3,3.6-6l20.8-5.1c2.7-0.6,5.3,1,6,3.6l0,0 c0.6,2.7-1,5.3-3.6,6l-20.8,5.1C1041.2,1184.5,1038.5,1182.8,1037.9,1180.2z" class="st72"/></g><radialGradient id="XMLID_24_" cx="1065.028" cy="1166.714" r="20.492" gradientUnits="userSpaceOnUse"><stop offset="0" style="stop-color:#70cac5"/><stop offset="1" style="stop-color:#4755a5"/></radialGradient><circle id="XMLID_350_" cx="1072" cy="1171.4" r="10.3" class="st73"/><g id="XMLID_348_"><linearGradient id="XMLID_25_" x1="1081.769" x2="1061.996" y1="1092.699" y2="1092.699" gradientUnits="userSpaceOnUse"><stop offset="0" style="stop-color:#4755a5"/><stop offset="1" style="stop-color:#70cac5"/></linearGradient><path id="XMLID_352_" d="M1078.8,1017.3h-13.7l-1.8,145.3c0,3,3.8,5.4,8.6,5.4c4.7,0,8.6-2.4,8.6-5.4 L1078.8,1017.3z" class="st74"/><linearGradient id="XMLID_26_" x1="1073.483" x2="1064.178" y1="1018.515" y2="1011.15" gradientUnits="userSpaceOnUse"><stop offset="0" style="stop-color:#4755a5"/><stop offset="1" style="stop-color:#70cac5"/></linearGradient><ellipse id="XMLID_345_" cx="1072" cy="1017.3" class="st75" rx="6.8" ry="4.1"/><linearGradient id="XMLID_27_" x1="1080.596" x2="1068.961" y1="1018.79" y2="1009.581" gradientUnits="userSpaceOnUse"><stop offset="0" style="stop-color:#4755a5"/><stop offset="1" style="stop-color:#70cac5"/></linearGradient><path id="XMLID_346_" d="M1078.8,1013.2c0,2.3-3.1,4.1-6.8,4.1s-6.8-1.8-6.8-4.1c0-2.3,3.1-8.1,6.8-8.1 S1078.8,1010.9,1078.8,1013.2z" class="st76"/></g></g></g><linearGradient id="XMLID_28_" x1="960.282" x2="791.914" y1="1344.957" y2="1199.548" gradientUnits="userSpaceOnUse"><stop offset="0" style="stop-color:#4755a5"/><stop offset="1" style="stop-color:#70cac5"/></linearGradient><path id="XMLID_353_" d="M882.9,1281.2l-112.8-66.8c-3.5-2-6.4-7.5-6.4-12.2l0-19.7c0-4.7,2.9-6.9,6.4-4.8 l112.8,66.8c3.5,2,6.4,7.5,6.4,12.2l0,19.7C889.3,1281.1,886.4,1283.2,882.9,1281.2z" class="st77"/></g><g id="_x32_"><g id="_x33__3_"><g id="XMLID_361_"><linearGradient id="XMLID_29_" x1="1003.667" x2="926.417" y1="1314.852" y2="925.67" gradientUnits="userSpaceOnUse"><stop offset="0" style="stop-color:#4755a5"/><stop offset="1" style="stop-color:#70cac5"/></linearGradient><path id="XMLID_362_" d="M816.8,905.9c4.3,6.5,10.4,9.5,14.3,6.8c12.8-8.6,44.8-22.4,96.8,5.2 c0.5,0.3,1.1,0.6,1.6,0.9c54.5,29.5,87.7,78.9,101.3,102.8c4.4,7.7,11.4,12.3,16.7,10.9l0,0c6.5-1.7,7.5-12,2-21.6 c-17.1-29.7-56.5-87.2-119.5-120.7c-0.6-0.3-1.2-0.7-1.9-1c-59.6-30.9-96.7-15.1-112.1-4.5 C811.2,887.9,811.5,897.9,816.8,905.9L816.8,905.9z" class="st78"/></g><g id="XMLID_359_"><linearGradient id="XMLID_30_" x1="991.96" x2="914.71" y1="1317.177" y2="927.994" gradientUnits="userSpaceOnUse"><stop offset="0" style="stop-color:#4755a5"/><stop offset="1" style="stop-color:#70cac5"/></linearGradient><path id="XMLID_360_" d="M847.1,963.1c4.2,6.7,10.4,10,14.5,7.7c10.7-5.9,33.7-13.5,65.7,3.6 c0.4,0.2,0.8,0.4,1.1,0.6c31.9,17.6,53.9,50.3,64.3,68.6c4.3,7.5,11,11.9,16.1,10.6l0,0c6.3-1.7,7.3-11.9,1.8-21.3 c-13.9-24.1-42.4-65.6-83.4-87.3c-39.6-20.8-67.3-11.5-80.6-3.9c-5,2.9-4.8,12.9,0.5,21.2L847.1,963.1z" class="st79"/></g><g id="XMLID_357_"><linearGradient id="XMLID_31_" x1="984.898" x2="907.647" y1="1318.579" y2="929.394" gradientUnits="userSpaceOnUse"><stop offset="0" style="stop-color:#4755a5"/><stop offset="1" style="stop-color:#70cac5"/></linearGradient><path id="XMLID_358_" d="M977.7,1078.9L977.7,1078.9c6.5-1.3,7.6-11.5,2.2-21.1c-10.3-18.3-28.5-45.2-53-58.9 c-22.5-12.6-39.1-8.7-48.6-3.6c-5.4,2.9-5,13.7,0.9,22.3l0,0.1c4.3,6.4,10.3,9.4,14.4,7.3c6.6-3.4,18.1-6.2,33.2,2.4 c16,9.1,28.5,28.1,35.6,40.8C966.4,1075.4,972.9,1079.9,977.7,1078.9z" class="st80"/></g><linearGradient id="XMLID_32_" x1="974.433" x2="897.182" y1="1320.657" y2="931.471" gradientUnits="userSpaceOnUse"><stop offset="0" style="stop-color:#4755a5"/><stop offset="1" style="stop-color:#70cac5"/></linearGradient><path id="XMLID_356_" d="M900.8,1067.5c-0.1,16.1,11.5,36.1,26,44.9c14.7,8.9,26.8,2.8,26.9-13.6 c0.1-16.4-11.8-36.7-26.5-45.3C912.6,1045.1,900.9,1051.4,900.8,1067.5z" class="st81"/></g><g id="_x34__2_"><g id="_x34__3_"><linearGradient id="XMLID_33_" x1="1068.921" x2="888.058" y1="1259.1" y2="1076.835" gradientUnits="userSpaceOnUse"><stop offset="0" style="stop-color:#4755a5"/><stop offset="1" style="stop-color:#70cac5"/></linearGradient><path id="XMLID_344_" d="M892.1,1062.7L892.1,1062.7l0.1,0c4.4-1,9.7,0,15.5,3.4c14.9,8.6,27,29,26.9,45.5 c0,6.3-1.9,11.1-5,14.2l0,0l-0.1,0c-1.6,1.6-5.2,3.5-7.4,4.1l-9.2,5.1l-36.9-63.7l10.1-5.4 C887.9,1064.2,889.8,1063.2,892.1,1062.7z" class="st82"/><linearGradient id="XMLID_34_" x1="1078.981" x2="902.326" y1="1232.047" y2="1038.568" gradientUnits="userSpaceOnUse"><stop offset="0" style="stop-color:#4755a5"/><stop offset="1" style="stop-color:#70cac5"/></linearGradient><path id="XMLID_343_" d="M858.2,1007.5c9.7-5.1,26.5-9.2,49.4,3.4c24.8,13.7,43.3,40.7,53.7,59.2 c5.5,9.7,4.4,19.9-2.2,21.2l-3.4,1.9l-9.1,5.1l-56.6-64.2c-6.9-0.5-12.5,1.3-16.4,3.3c-4.1,2.1-10.2-0.9-14.6-7.3l0-0.1 c-1.6-2.3-2.8-4.8,1.1-10.3l-15.7-3.4L858.2,1007.5z" class="st83"/><linearGradient id="XMLID_35_" x1="1096.542" x2="894.65" y1="1242.158" y2="991.195" gradientUnits="userSpaceOnUse"><stop offset="0" style="stop-color:#4755a5"/><stop offset="1" style="stop-color:#70cac5"/></linearGradient><path id="XMLID_342_" d="M828.1,951.9c14.1-7.5,41.4-14.7,79.6,5c41.7,21.6,70.6,63.6,84.7,87.8 c5.5,9.5,4.6,19.8-1.9,21.6c-0.5,0.1-3.9,2.3-4.4,2.3l-9.6,5.4l-44.6-60.7l-61.7-37.4c-13.1-0.1-23,3.8-29,7.1 c-4.2,2.3-10.4-1-14.7-7.7l-0.1-0.1c-0.1-0.1-0.1-0.2-0.2-0.4l-3.9-0.1l-8-13.1l7.8-6.1L828.1,951.9z" class="st84"/><linearGradient id="XMLID_36_" x1="1136.505" x2="905.17" y1="1275.11" y2="958.253" gradientUnits="userSpaceOnUse"><stop offset="0" style="stop-color:#4755a5"/><stop offset="1" style="stop-color:#70cac5"/></linearGradient><path id="XMLID_341_" d="M783.7,904.4l11.3-8.1c15.7-10.7,53.3-26.8,113.8,4.1c0.6,0.3,1.3,0.6,1.9,1 c63.9,33.4,103.9,91.3,121.3,121.1c4.3,7.4,5.5,14.1,2.4,18.1l-3.1,3.1l-1.8,1c-0.7,0.5-3.5,1.9-4.4,2.2l-10.4,5.5l-18.4-25.3 l-75.8-87.2L877.9,917c-34.9-9.6-57.4,0.6-67.6,7.5c-4,2.7-10.2-0.2-14.5-6.8l0,0c-2.1-3.2-3.4-6.7-4-10L783.7,904.4z" class="st85"/></g><g id="_x33__2_"><g id="XMLID_351_"><linearGradient id="XMLID_37_" x1="1023.796" x2="694.321" y1="1060.511" y2="799.735" gradientUnits="userSpaceOnUse"><stop offset="0" style="stop-color:#4755a5"/><stop offset="1" style="stop-color:#70cac5"/></linearGradient><path id="XMLID_340_" d="M784.5,925.6c4.3,6.5,10.4,9.5,14.3,6.8c12.8-8.6,44.8-22.4,96.8,5.2 c0.5,0.3,1.1,0.6,1.6,0.9c54.5,29.5,87.7,78.9,101.3,102.8c4.4,7.7,11.4,12.3,16.7,10.9l0,0c6.5-1.7,7.5-12,2-21.6 c-17.1-29.7-56.5-87.2-119.5-120.7c-0.6-0.3-1.2-0.7-1.9-1c-59.6-30.9-96.7-15.1-112.1-4.5 C778.9,907.6,779.3,917.6,784.5,925.6L784.5,925.6z" class="st86"/></g><g id="XMLID_349_"><linearGradient id="XMLID_38_" x1="1001.125" x2="671.647" y1="1089.155" y2="828.377" gradientUnits="userSpaceOnUse"><stop offset="0" style="stop-color:#4755a5"/><stop offset="1" style="stop-color:#70cac5"/></linearGradient><path id="XMLID_337_" d="M814.8,982.8c4.2,6.7,10.4,10,14.5,7.7c10.7-5.9,33.7-13.5,65.7,3.6 c0.4,0.2,0.8,0.4,1.1,0.6c31.9,17.6,53.9,50.3,64.3,68.6c4.2,7.5,11,11.9,16.1,10.6l0,0c6.3-1.7,7.3-11.9,1.8-21.3 c-13.9-24.1-42.4-65.6-83.4-87.3c-39.6-20.8-67.3-11.5-80.6-3.9c-5,2.9-4.8,12.9,0.5,21.2L814.8,982.8z" class="st87"/></g><g id="XMLID_347_"><linearGradient id="XMLID_39_" x1="980.69" x2="651.213" y1="1114.973" y2="854.196" gradientUnits="userSpaceOnUse"><stop offset="0" style="stop-color:#4755a5"/><stop offset="1" style="stop-color:#70cac5"/></linearGradient><path id="XMLID_335_" d="M945.5,1098.6L945.5,1098.6c6.5-1.3,7.6-11.5,2.2-21.1c-10.3-18.3-28.5-45.2-53-58.9 c-22.5-12.6-39.1-8.7-48.6-3.6c-5.4,2.9-5,13.7,0.9,22.3l0,0.1c4.3,6.4,10.3,9.4,14.4,7.3c6.6-3.4,18.1-6.2,33.2,2.4 c16,9.1,28.5,28.1,35.6,40.8C934.2,1095.2,940.6,1099.6,945.5,1098.6z" class="st88"/></g><linearGradient id="XMLID_40_" x1="953.599" x2="624.122" y1="1149.201" y2="888.423" gradientUnits="userSpaceOnUse"><stop offset="0" style="stop-color:#4755a5"/><stop offset="1" style="stop-color:#70cac5"/></linearGradient><path id="XMLID_333_" d="M868.6,1087.2c-0.1,16.1,11.5,36.1,26,44.9c14.7,8.9,26.8,2.8,26.9-13.6 c0.1-16.4-11.8-36.7-26.5-45.3C880.4,1064.8,868.7,1071.1,868.6,1087.2z" class="st89"/></g></g></g></g><g id="XMLID_57_"><linearGradient id="XMLID_41_" x1="994.453" x2="990.242" y1="1209.96" y2="1202.54" gradientUnits="userSpaceOnUse"><stop offset="0" style="stop-color:#6f65ad"/><stop offset="1" style="stop-color:#d7bfdc"/></linearGradient><path id="XMLID_59_" d="M1022,1184.1l-7.4-4.3l0,0l-55.9,32v11.5l10.1,17.7l55.6-32c0.9-0.4,1.5-1.6,1.5-3.3 l0.1-13.7C1026.1,1188.9,1024.3,1185.4,1022,1184.1z" class="st90"/><path id="XMLID_60_" d="M966.3,1216.2l-7.6-4.4v24.6l7.5,4.4c2.2,1.3,4.1-0.1,4.1-3.1l0.1-13.7 C970.4,1221,968.5,1217.5,966.3,1216.2z" class="st91"/></g><g id="XMLID_58_"><linearGradient id="XMLID_42_" x1="956.104" x2="951.924" y1="1231.805" y2="1224.442" gradientUnits="userSpaceOnUse"><stop offset="0" style="stop-color:#6f65ad"/><stop offset="1" style="stop-color:#d7bfdc"/></linearGradient><path id="XMLID_61_" d="M960.5,1219.2l-7.4-4.3l0,0l-9.5,5.4v11.5l10.1,17.7l9.3-5.5c0.9-0.4,1.5-1.6,1.5-3.3 l0.1-13.7C964.5,1224,962.7,1220.5,960.5,1219.2z" class="st92"/><path id="XMLID_62_" d="M951.1,1224.7l-7.6-4.4v24.6l7.5,4.4c2.2,1.3,4.1-0.1,4.1-3.1l0.1-13.7 C955.2,1229.5,953.4,1226,951.1,1224.7z" class="st91"/></g></g><g id="_x37_"><g id="XMLID_2061_"><linearGradient id="XMLID_43_" x1="2067.799" x2="2050.598" y1="1718.45" y2="1688.143" gradientUnits="userSpaceOnUse"><stop offset="0" style="stop-color:#6961ab"/><stop offset="1" style="stop-color:#cfc0df"/></linearGradient><path id="XMLID_2065_" d="M2234.7,1577.1l-63.7-36.9c-4.5-2.6-8.6-2.9-11.9-1.2l0,0l0,0c-0.1,0-0.1,0.1-0.2,0.1 l-258.3,148.8l88.1,335.4l257-148.1c4.3-2.1,7.1-7.5,7.2-15.5l0.4-246.8C2253.4,1599.1,2245.1,1583.1,2234.7,1577.1z" class="st93"/><path id="XMLID_2064_" d="M1976.8,2022.1l-63.7-36.9c-10.3-6-18.7-22-18.7-35.8l0.4-246.8c0-13.8,8.4-20.1,18.8-14.1 l63.7,36.9c10.3,6,18.7,22,18.7,35.8l-0.4,246.8C1995.6,2021.8,1987.2,2028.1,1976.8,2022.1z" class="st94"/><linearGradient id="XMLID_44_" x1="1931.467" x2="1952.407" y1="1975.28" y2="1770.071" gradientUnits="userSpaceOnUse"><stop offset="0" style="stop-color:#4755a5"/><stop offset="1" style="stop-color:#70cac5"/></linearGradient><path id="XMLID_2063_" d="M1964,1992.9l-40.8-23.6c-6.6-3.8-12-14.1-12-22.9l0.1-220.5c0-8.8,5.4-12.9,12-9 l40.8,23.6c6.6,3.8,12,14.1,12,22.9l-0.1,220.5C1976,1992.7,1970.7,1996.8,1964,1992.9z" class="st95"/><linearGradient id="XMLID_65_" x1="1967.36" x2="1982.469" y1="1907.891" y2="1930.815" gradientUnits="userSpaceOnUse"><stop offset="0" style="stop-color:#715ba7"/><stop offset="1" style="stop-color:#cfc0df"/></linearGradient><path id="XMLID_2062_" d="M1943.1,1958.9c-6.6-3.8-12-14.1-12-22.9l0.1-214.6l-7.8-4.5c-6.6-3.8-12,0.2-12,9 l-0.1,220.5c0,8.8,5.3,19.1,12,22.9l40.8,23.6c6.6,3.8,12-0.2,12-9l0-5.9L1943.1,1958.9z" class="st96"/></g><linearGradient id="XMLID_66_" x1="1906.844" x2="1927.784" y1="1989.729" y2="1784.519" gradientUnits="userSpaceOnUse"><stop offset="0" style="stop-color:#4755a5"/><stop offset="1" style="stop-color:#70cac5"/></linearGradient><path id="XMLID_2060_" d="M1939.4,2007.4l-40.8-23.6c-6.6-3.8-12-14.1-12-22.9l0.1-220.5c0-8.8,5.4-12.9,12-9 l40.8,23.6c6.6,3.8,12,14.1,12,22.9l-0.1,220.5C1951.4,2007.2,1946,2011.2,1939.4,2007.4z" class="st97"/><g id="XMLID_2056_"><path id="XMLID_2057_" d="M1925.8,2025.2c-2.1,0-4.4-0.7-6.6-2l-40.8-23.6c-7.8-4.5-13.8-16-13.8-26.1l0.1-220.5 c0-6,2.2-10.7,6-12.9c3.4-1.9,7.5-1.7,11.5,0.7l40.8,23.6c7.8,4.5,13.8,16,13.8,26.1l-0.1,220.5c0,6-2.2,10.7-6,12.9 C1929.2,2024.8,1927.5,2025.2,1925.8,2025.2z M1875.6,1746.2c-0.4,0-0.9,0.1-1.2,0.3c-1.1,0.6-2.3,2.7-2.3,6.5l-0.1,220.5 c0,7.5,4.6,16.6,10.1,19.8l40.8,23.6c1,0.6,2.8,1.4,4.2,0.6c1.1-0.6,2.3-2.7,2.3-6.5l0.1-220.5c0-7.5-4.6-16.6-10.1-19.8 l-40.8-23.6C1877.9,1746.7,1876.7,1746.2,1875.6,1746.2z" class="st98"/></g><g id="XMLID_2052_"><path id="XMLID_2053_" d="M1836.2,2076.4c-2.1,0-4.4-0.7-6.6-2l-40.8-23.6c-7.8-4.5-13.8-16-13.8-26.1l0.1-220.5 c0-6,2.2-10.7,6-12.9c3.4-1.9,7.5-1.7,11.5,0.7l40.8,23.6c7.8,4.5,13.8,16,13.8,26.1l-0.1,220.5c0,6-2.2,10.7-6,12.9 C1839.6,2076,1837.9,2076.4,1836.2,2076.4z M1786.1,1797.4c-0.4,0-0.9,0.1-1.2,0.3c-1.1,0.6-2.3,2.7-2.3,6.5l-0.1,220.5 c0,7.5,4.6,16.6,10.1,19.8l40.8,23.6c1,0.6,2.8,1.4,4.2,0.6c1.1-0.6,2.3-2.7,2.3-6.5l0.1-220.5c0-7.5-4.6-16.6-10.1-19.8 l-40.8-23.6C1788.3,1797.9,1787.1,1797.4,1786.1,1797.4z" class="st98"/></g><linearGradient id="XMLID_67_" x1="1931.418" x2="1952.358" y1="1975.675" y2="1770.465" gradientUnits="userSpaceOnUse"><stop offset="0" style="stop-color:#4755a5"/><stop offset="1" style="stop-color:#70cac5"/></linearGradient><path id="XMLID_2051_" d="M1964,1993.3l-40.8-23.6c-6.6-3.8-12-14.1-12-22.9l0.1-220.5c0-8.8,5.4-12.9,12-9l40.8,23.6 c6.6,3.8,12,14.1,12,22.9l-0.1,220.5C1976,1993.1,1970.6,1997.2,1964,1993.3z" class="st99"/></g><g id="_x36_"><g id="XMLID_905_"><g id="XMLID_903_"><linearGradient id="XMLID_88_" x1="1518.92" x2="1557.983" y1="1192.001" y2="1106.281" gradientUnits="userSpaceOnUse"><stop offset="0" style="stop-color:#4755a5"/><stop offset="1" style="stop-color:#70cac5"/></linearGradient><path id="XMLID_906_" d="M1576.4,1204.4l-8.5-7.1c14.6-17.6,21.1-36.5,17.9-51.8c-2.6-12.3-11.2-22.2-25.7-29.5 c-37.9-19-77.5,34.2-77.9,34.7l-8.9-6.5c1.8-2.5,45.5-61.3,91.8-38.1c17.4,8.7,28.3,21.5,31.6,37.1 C1600.6,1161.9,1593.2,1184.2,1576.4,1204.4z" class="st100"/></g><linearGradient id="XMLID_95_" x1="1528.502" x2="1561.548" y1="1267.759" y2="1191.875" gradientUnits="userSpaceOnUse"><stop offset="0" style="stop-color:#8575b5"/><stop offset="1" style="stop-color:#fef6f9"/></linearGradient><path id="XMLID_901_" d="M1573.4,1219.8c5.3-11,9.1-19.5,9.1-19.5s-10.4-6.3-15.7-8.4h0c-5-2.6-11.9-1.9-19.6,2.5 c-15.3,8.9-27.3,28.5-27.2,45.3c0,7.2,2.8,11.5,6.2,15.5c0,0,9.1,10.4,18,11c3.7,0.2,11.1-11.3,18.3-24.8 C1567.5,1234.8,1571.3,1227.3,1573.4,1219.8z" class="st101"/><linearGradient id="XMLID_104_" x1="1560.438" x2="1564.48" y1="1273.555" y2="1186.244" gradientUnits="userSpaceOnUse"><stop offset="0" style="stop-color:#4858a7"/><stop offset="1" style="stop-color:#71cac5"/></linearGradient><path id="XMLID_897_" d="M1590,1216.7c0,16.8-12.3,37.5-27.6,46.4c-15.3,8.9-27.7,2.5-27.8-14.3 c0-16.8,12.3-37.5,27.6-46.4C1577.6,1193.6,1590,1199.9,1590,1216.7z" class="st102"/><linearGradient id="XMLID_123_" x1="1546.567" x2="1579.247" y1="1284.351" y2="1209.306" gradientUnits="userSpaceOnUse"><stop offset="0" style="stop-color:#8575b5"/><stop offset="1" style="stop-color:#fef6f9"/></linearGradient><path id="XMLID_895_" d="M1590,1222.3c0,13.3-9.8,29.8-22,36.9c-12.2,7.1-22,2-22.1-11.3c0-13.3,9.8-29.8,22-36.9 C1580.1,1203.9,1590,1209,1590,1222.3z" class="st103"/><linearGradient id="XMLID_124_" x1="1435.146" x2="1468.239" y1="1212.343" y2="1136.352" gradientUnits="userSpaceOnUse"><stop offset="0" style="stop-color:#8575b5"/><stop offset="1" style="stop-color:#fef6f9"/></linearGradient><path id="XMLID_899_" d="M1480.1,1164.3c5.3-11,9.1-19.5,9.1-19.5s-10.4-6.3-15.7-8.4h0c-5-2.6-11.9-1.9-19.6,2.5 c-15.3,8.9-27.3,28.5-27.2,45.3c0,7.2,2.8,11.5,6.2,15.5c0,0,9.6,11.1,19.6,11.5c3.7,0.1,9.4-11.8,16.7-25.4 C1474.2,1179.3,1478,1171.7,1480.1,1164.3z" class="st104"/><linearGradient id="XMLID_125_" x1="1445.482" x2="1524.772" y1="1224.225" y2="1065.952" gradientUnits="userSpaceOnUse"><stop offset="0" style="stop-color:#8575b5"/><stop offset="1" style="stop-color:#fef6f9"/></linearGradient><path id="XMLID_898_" d="M1496.7,1161.2c0,16.8-12.3,37.5-27.6,46.4c-15.3,8.9-27.7,2.5-27.8-14.3 c0-16.8,12.3-37.5,27.6-46.4C1484.3,1138,1496.7,1144.4,1496.7,1161.2z" class="st105"/><linearGradient id="XMLID_126_" x1="1456.992" x2="1497.506" y1="1201.249" y2="1120.378" gradientUnits="userSpaceOnUse"><stop offset="0" style="stop-color:#8575b5"/><stop offset="1" style="stop-color:#3f3694"/></linearGradient><path id="XMLID_902_" d="M1483.2,1169c0,8.6-6.3,19.2-14.1,23.7c-7.8,4.5-14.2,1.3-14.2-7.3 c0-8.6,6.3-19.2,14.1-23.7C1476.8,1157.2,1483.2,1160.5,1483.2,1169z" class="st106"/></g><g id="XMLID_914_"><g id="XMLID_910_"><linearGradient id="XMLID_127_" x1="1465.074" x2="1430.262" y1="1243.238" y2="1215.685" gradientUnits="userSpaceOnUse"><stop offset="0" style="stop-color:#4755a5"/><stop offset="1" style="stop-color:#70cac5"/></linearGradient><path id="XMLID_913_" d="M1456.3,1254.2c-1.4,1.2-3.5,1.1-4.8-0.3l-11.1-12.8c-10.4-12-6.7-27-2.2-35.5 c0.9-1.8,3.2-2.3,4.9-1.1l0,0c1.4,1,1.9,2.8,1.1,4.3c-2.8,5.3-7.6,17.6,1.3,27.8l11.1,12.8 C1457.9,1250.9,1457.7,1253,1456.3,1254.2L1456.3,1254.2z" class="st107"/></g><radialGradient id="XMLID_128_" cx="1464.137" cy="1246.668" r="16.392" gradientUnits="userSpaceOnUse"><stop offset="0" style="stop-color:#fef6f9"/><stop offset="1" style="stop-color:#685ba7"/></radialGradient><circle id="XMLID_911_" cx="1461.3" cy="1255.1" r="11.9" class="st108"/></g></g><g id="_x35_"><g id="_x36__14_"><g id="XMLID_762_"><linearGradient id="XMLID_129_" x1="766.717" x2="612.937" y1="1368.998" y2="1202.432" gradientUnits="userSpaceOnUse"><stop offset="0" style="stop-color:#545daa"/><stop offset="1" style="stop-color:#71cac5"/></linearGradient><path id="XMLID_764_" d="M745.4,1180.5v157c0,24.4-33.6,44.1-75.1,44.1c-41.5,0-75.1-19.8-75.1-44.1v-157H745.4z" class="st109"/><ellipse id="XMLID_763_" cx="670.3" cy="1183.8" class="st110" rx="75.1" ry="44.1"/></g></g><ellipse id="XMLID_758_" cx="670.3" cy="1180.6" class="st111" rx="52.2" ry="27.4"/><ellipse id="XMLID_92_" cx="670.3" cy="1180.5" class="st112" rx="21.9" ry="11.5"/><linearGradient id="XMLID_130_" x1="602.286" x2="758.537" y1="1220.601" y2="1399.639" gradientUnits="userSpaceOnUse"><stop offset="0" style="stop-color:#8ad3dc"/><stop offset=".995" style="stop-color:#37489e"/></linearGradient><path id="XMLID_91_" d="M670.3,1357.5c30.3,0,54.9-14.4,54.9-32.2v-61.2c-0.9-0.5-1.7-1-2.7-1.5 c-31.2-15.8-47.1,6.1-69.3,8.6c-19.9,2.3-37.8-12.8-37.8-12.8v66.8C615.4,1343.1,640,1357.5,670.3,1357.5z" class="st113"/></g><g id="_x34_"><g id="XMLID_2146_"><g id="XMLID_2159_"><linearGradient id="XMLID_131_" x1="1817.689" x2="1798.001" y1="1262.191" y2="1262.191" gradientUnits="userSpaceOnUse"><stop offset="0" style="stop-color:#2d2d84"/><stop offset="1" style="stop-color:#404a9f"/></linearGradient><path id="XMLID_2161_" d="M1805.5,1194.7l0,50l-0.1,1.8c-0.3,4.2-1.6,14.9-8.3,19.2c-3.6,2.3-19.5,11.8-32.1,19.2 l-14.1,2.2v9.3l0,0c0.2,2.1,1.6,4.5,4.7,6.4l43.5,24.6c5.9,3.3,13,3.3,18.8-0.1c11.5-6.7,38-22.4,42.9-25.5 c7.2-4.6,8.2-16.8,8.3-20.1l0.1,0v-50.1L1805.5,1194.7z" class="st114"/><linearGradient id="XMLID_132_" x1="1822.429" x2="1805.789" y1="1249.371" y2="1276.086" gradientUnits="userSpaceOnUse"><stop offset="0" style="stop-color:#494ea1"/><stop offset="1" style="stop-color:#6271b6"/></linearGradient><path id="XMLID_2160_" d="M1861.2,1277.7l0-51.1l-63.7-36.8l0,51l-0.1,1.8c-0.3,4.2-1.6,14.9-8.3,19.2 c-4.9,3.2-24.2,14.5-35.6,21.1c-3.8,2.2-3.7,7.4,2.2,11.1l43.5,24.6c5.9,3.3,13,3.3,18.8-0.1c11.5-6.7,30-17.6,34.9-20.7 C1860,1293.2,1861,1281,1861.2,1277.7L1861.2,1277.7z" class="st115"/></g><g id="XMLID_2155_"><linearGradient id="XMLID_133_" x1="1875.775" x2="1854.628" y1="1094.421" y2="1049.686" gradientUnits="userSpaceOnUse"><stop offset="0" style="stop-color:#494ea1"/><stop offset="1" style="stop-color:#6271b6"/></linearGradient><path id="XMLID_2158_" d="M2043.7,1309.7l0.6-320.7c0-9.4-5.8-20.4-12.8-24.5L1666,754c-3.1-1.8-5.8-1.9-8-0.8 l0-0.1l-14.3,8.2l9.6,13.6l0.2,311c0,9.4,5.8,20.4,12.8,24.5l356.5,218.5l3.5-1.5l13.3-7.6v0 C2042.1,1318.2,2043.7,1314.7,2043.7,1309.7z" class="st116"/><linearGradient id="XMLID_134_" x1="1978.763" x2="1691.294" y1="1349.717" y2="738.844" gradientUnits="userSpaceOnUse"><stop offset="0" style="stop-color:#292973"/><stop offset="1" style="stop-color:#3d71b7"/></linearGradient><path id="XMLID_2157_" d="M2018.3,1328.7l-365.5-210.5c-7.1-4.1-12.8-15-12.8-24.5l-0.2-322.3 c0-9.4,5.7-13.8,12.8-9.7l365.5,210.5c7.1,4.1,12.8,15,12.8,24.5l0.2,312.8C2031.1,1318.9,2025.4,1332.8,2018.3,1328.7z" class="st117"/><linearGradient id="XMLID_135_" x1="3408.58" x2="2226.969" y1="2147.39" y2="590.974" gradientTransform="matrix(0.8665 0.4992 0.5014 1.4429 -542.9237 -1158.767)" gradientUnits="userSpaceOnUse"><stop offset="0" style="stop-color:#5b54a4"/><stop offset="1" style="stop-color:#fff7e3"/></linearGradient><path id="XMLID_2156_" d="M2009.3,1301.5l-348-200.5c-3.1-1.8-5.7-6.6-5.7-10.8l-0.1-297.9c0-4.2,2.5-6.1,5.7-4.3 l348,200.5c3.1,1.8,5.7,6.6,5.7,10.8l0.1,297.9C2014.9,1301.4,2012.4,1303.3,2009.3,1301.5z" class="st118"/></g></g><g id="XMLID_64_"><linearGradient id="XMLID_136_" x1="2054.21" x2="1969.93" y1="1042.284" y2="954.173" gradientTransform="matrix(0.8663 0.4996 5.000000e-04 1.1547 215.4827 -1014.5268)" gradientUnits="userSpaceOnUse"><stop offset="0" style="stop-color:#4755a5"/><stop offset="1" style="stop-color:#70cac5"/></linearGradient><polygon id="XMLID_96_" points="1964.6 1228.3 1944.9 1216.9 1944.9 1041.6 1964.6 1053" class="st119"/><linearGradient id="XMLID_137_" x1="2008.196" x2="1934.862" y1="1047.224" y2="970.557" gradientTransform="matrix(0.8663 0.4996 5.000000e-04 1.1547 215.4827 -1014.5268)" gradientUnits="userSpaceOnUse"><stop offset="0" style="stop-color:#4755a5"/><stop offset="1" style="stop-color:#70cac5"/></linearGradient><polygon id="XMLID_99_" points="1930.1 1208.4 1910.4 1197 1910.3 1047.8 1930 1059.1" class="st120"/><linearGradient id="XMLID_148_" x1="1960.152" x2="1900.502" y1="1053.183" y2="990.822" gradientTransform="matrix(0.8663 0.4996 5.000000e-04 1.1547 215.4827 -1014.5268)" gradientUnits="userSpaceOnUse"><stop offset="0" style="stop-color:#4755a5"/><stop offset="1" style="stop-color:#70cac5"/></linearGradient><polygon id="XMLID_100_" points="1895.1 1188.1 1875.4 1176.7 1875.3 1060 1895 1071.3" class="st121"/><linearGradient id="XMLID_149_" x1="1929.053" x2="1852.983" y1="1046.574" y2="967.046" gradientTransform="matrix(0.8663 0.4996 5.000000e-04 1.1547 215.4827 -1014.5268)" gradientUnits="userSpaceOnUse"><stop offset="0" style="stop-color:#4755a5"/><stop offset="1" style="stop-color:#70cac5"/></linearGradient><polygon id="XMLID_105_" points="1860.2 1168.8 1840.5 1157.4 1840.4 1001.6 1860.1 1013" class="st122"/><linearGradient id="XMLID_150_" x1="1879.479" x2="1819.83" y1="1053.754" y2="991.393" gradientTransform="matrix(0.8663 0.4996 5.000000e-04 1.1547 215.4827 -1014.5268)" gradientUnits="userSpaceOnUse"><stop offset="0" style="stop-color:#4755a5"/><stop offset="1" style="stop-color:#70cac5"/></linearGradient><polygon id="XMLID_283_" points="1825.2 1148.4 1805.5 1137 1805.4 1020.3 1825.2 1031.7" class="st123"/><linearGradient id="XMLID_151_" x1="1828.875" x2="1788.382" y1="1062.36" y2="1020.026" gradientTransform="matrix(0.8663 0.4996 5.000000e-04 1.1547 215.4827 -1014.5268)" gradientUnits="userSpaceOnUse"><stop offset="0" style="stop-color:#4755a5"/><stop offset="1" style="stop-color:#70cac5"/></linearGradient><polygon id="XMLID_278_" points="1790.6 1128.5 1770.9 1117.2 1770.9 1046 1790.6 1057.4" class="st124"/><linearGradient id="XMLID_152_" x1="1800.722" x2="1738.336" y1="1052.434" y2="987.212" gradientTransform="matrix(0.8663 0.4996 5.000000e-04 1.1547 215.4827 -1014.5268)" gradientUnits="userSpaceOnUse"><stop offset="0" style="stop-color:#4755a5"/><stop offset="1" style="stop-color:#70cac5"/></linearGradient><polygon id="XMLID_214_" points="1755.7 1108.2 1735.9 1096.8 1735.9 973.6 1755.6 985" class="st125"/><linearGradient id="XMLID_153_" x1="1772.684" x2="1688.403" y1="1043.382" y2="955.271" gradientTransform="matrix(0.8663 0.4996 5.000000e-04 1.1547 215.4827 -1014.5268)" gradientUnits="userSpaceOnUse"><stop offset="0" style="stop-color:#4755a5"/><stop offset="1" style="stop-color:#70cac5"/></linearGradient><polygon id="XMLID_138_" points="1720.8 1088.9 1701 1077.5 1701 902.2 1720.7 913.6" class="st126"/></g></g><g id="_x33_"><g id="_x32__2_"><g id="XMLID_920_"><g id="XMLID_928_"><linearGradient id="XMLID_154_" x1="1727.289" x2="1444.057" y1="957.986" y2="358.843" gradientUnits="userSpaceOnUse"><stop offset="0" style="stop-color:#4d5eaa"/><stop offset="1" style="stop-color:#71d0f6"/></linearGradient><path id="XMLID_933_" d="M1290.5,277.1l-23.7-34.1l60.6-36.3c2.5-1.8,5.1-3.3,7.8-4.7l1.3-0.8l0.1,0.1 c20-9.3,45.1-7.1,72.2,9.1c15.6,9.3,30.4,22.5,43.9,38.2l40.1-24.2c2.6-1.8,5.2-3.4,7.9-4.8l0.1-0.1v0 c26.2-13.6,59.6-11.2,95.8,10.4c82.4,49.3,148.1,179.6,146.8,291c-0.1,9.7-0.8,19-1.9,27.7c45,42,77.8,117.1,77,182.8 c-0.5,38.5-12.4,66.5-31.4,80.7l0,0l0,0c-2.7,2-5.6,3.7-8.5,5.1l-60,35.9l-55.4-60.9l3.4-10L1324,583.6 c-59.9-35.8-107.7-130.5-106.7-211.5C1218.1,308.7,1248.5,272.6,1290.5,277.1z" class="st127"/><linearGradient id="XMLID_155_" x1="1441.143" x2="1361.772" y1="372.784" y2="249.081" gradientUnits="userSpaceOnUse"><stop offset="0" style="stop-color:#4d5eaa"/><stop offset="1" style="stop-color:#71d0f6"/></linearGradient><path id="XMLID_932_" d="M1452.7,248.8c-13.5-15.7-28.3-28.9-43.9-38.2c-27.1-16.2-52.2-18.4-72.2-9.1l-0.1-0.1 l-1.3,0.8c-2.7,1.3-5.3,2.9-7.8,4.7l-60.6,36.3l19.1,27.5l107.4,31.6L1452.7,248.8z" class="st128"/><linearGradient id="XMLID_156_" x1="1786.475" x2="1673.032" y1="821.283" y2="581.308" gradientUnits="userSpaceOnUse"><stop offset="0" style="stop-color:#4d5eaa"/><stop offset="1" style="stop-color:#71d0f6"/></linearGradient><path id="XMLID_930_" d="M1778.7,817.5c3-1.4,5.8-3.1,8.5-5.1l0,0l0,0c19-14.1,30.9-42.1,31.4-80.7 c0.8-65.7-32.1-140.8-77-182.8l-69.2,41.5l9.2,222.2l37.1,40.7L1778.7,817.5z" class="st129"/><linearGradient id="XMLID_157_" x1="1751.805" x2="1089.429" y1="839.284" y2="118.213" gradientUnits="userSpaceOnUse"><stop offset="0" style="stop-color:#5356a5"/><stop offset="1" style="stop-color:#4ec5d4"/></linearGradient><path id="XMLID_929_" d="M1223,318.7c8.7-71.9,57.9-101.8,116.6-66.7c19.4,11.6,37.7,29.1,53.6,50.1 c25.5-50.5,76.2-65.1,134.2-30.5c82.4,49.3,148.1,179.6,146.8,291c-0.1,9.7-0.8,19-1.9,27.7c45,42,77.8,117.1,77,182.8 c-0.9,77.2-48,112.1-105.1,78l-389.6-226c-59.9-35.8-107.7-130.5-106.7-211.5C1148.9,349.4,1180.2,313.1,1223,318.7z" class="st130"/></g><g id="XMLID_921_"><linearGradient id="XMLID_158_" x1="1603.656" x2="1320.425" y1="1029.72" y2="430.577" gradientUnits="userSpaceOnUse"><stop offset="0" style="stop-color:#4d5eaa"/><stop offset="1" style="stop-color:#71d0f6"/></linearGradient><path id="XMLID_926_" d="M1166.8,348.8l-23.7-34.1l60.6-36.3c2.5-1.8,5.1-3.3,7.8-4.7l1.3-0.8l0.1,0.1 c20-9.3,45.1-7.1,72.2,9.1c15.6,9.3,30.4,22.5,43.9,38.2l40.1-24.2c2.6-1.8,5.2-3.4,7.9-4.8l0.1-0.1l0,0 c26.2-13.6,59.6-11.2,95.8,10.4c82.4,49.3,148.1,179.6,146.8,291c-0.1,9.7-0.8,19-1.9,27.7c45,42,77.8,117.1,77,182.8 c-0.5,38.5-12.4,66.5-31.4,80.7l0,0l0,0c-2.7,2-5.6,3.7-8.5,5.1l-60,35.9l-55.4-60.9l3.4-10l-342.6-198.7 c-59.9-35.8-107.7-130.5-106.7-211.5C1094.5,380.5,1124.9,344.4,1166.8,348.8z" class="st131"/><linearGradient id="XMLID_159_" x1="1317.51" x2="1238.14" y1="444.518" y2="320.815" gradientUnits="userSpaceOnUse"><stop offset="0" style="stop-color:#4d5eaa"/><stop offset="1" style="stop-color:#71d0f6"/></linearGradient><path id="XMLID_925_" d="M1329.1,320.5c-13.5-15.7-28.3-28.9-43.9-38.2c-27.1-16.2-52.2-18.4-72.2-9.1l-0.1-0.1 l-1.3,0.8c-2.7,1.3-5.3,2.9-7.8,4.7l-60.6,36.3l19.1,27.5l107.4,31.6L1329.1,320.5z" class="st132"/><linearGradient id="XMLID_160_" x1="1662.842" x2="1549.399" y1="893.019" y2="653.043" gradientUnits="userSpaceOnUse"><stop offset="0" style="stop-color:#4d5eaa"/><stop offset="1" style="stop-color:#71d0f6"/></linearGradient><path id="XMLID_924_" d="M1655,889.2c3-1.4,5.8-3.1,8.5-5.1l0,0l0,0c19-14.1,30.9-42.1,31.4-80.7 c0.8-65.7-32.1-140.8-77-182.8l-69.2,41.5l9.2,222.2l37.1,40.7L1655,889.2z" class="st133"/><linearGradient id="XMLID_161_" x1="1628.173" x2="965.796" y1="911.019" y2="189.947" gradientUnits="userSpaceOnUse"><stop offset="0" style="stop-color:#5356a5"/><stop offset="1" style="stop-color:#4ec5d4"/></linearGradient><path id="XMLID_922_" d="M1099.4,390.5c8.7-71.9,57.9-101.8,116.6-66.7c19.4,11.6,37.7,29.1,53.6,50.1 c25.5-50.5,76.2-65.1,134.2-30.5c82.4,49.3,148.1,179.6,146.8,291c-0.1,9.7-0.8,19-1.9,27.7c45,42,77.8,117.1,77,182.8 c-0.9,77.2-48,112.1-105.1,78l-389.6-226c-59.9-35.8-107.7-130.5-106.7-211.5C1025.3,421.1,1056.5,384.8,1099.4,390.5z" class="st134"/></g></g><g id="XMLID_475_"><g id="XMLID_484_"><linearGradient id="XMLID_162_" x1="1727.237" x2="1444.005" y1="958.002" y2="358.858" gradientUnits="userSpaceOnUse"><stop offset="0" style="stop-color:#4d5eaa"/><stop offset="1" style="stop-color:#71d0f6"/></linearGradient><path id="XMLID_919_" d="M1290.4,277.1l-23.7-34.1l60.6-36.3c2.5-1.8,5.1-3.3,7.8-4.7l1.3-0.8l0.1,0.1 c20-9.3,45.1-7.1,72.2,9.1c15.6,9.3,30.4,22.5,43.9,38.2l40.1-24.2c2.6-1.8,5.2-3.4,7.9-4.8l0.1-0.1v0 c26.2-13.6,59.6-11.2,95.8,10.4c82.4,49.3,148.1,179.6,146.8,291c-0.1,9.7-0.8,19-1.9,27.7c45,42,77.8,117.1,77,182.8 c-0.5,38.5-12.4,66.5-31.4,80.7l0,0l0,0c-2.7,2-5.6,3.7-8.5,5.1l-60,35.9l-55.4-60.9l3.4-10l-342.6-198.7 c-59.9-35.8-107.7-130.5-106.7-211.5C1218,308.7,1248.5,272.7,1290.4,277.1z" class="st135"/><linearGradient id="XMLID_163_" x1="1441.091" x2="1361.72" y1="372.8" y2="249.096" gradientUnits="userSpaceOnUse"><stop offset="0" style="stop-color:#4d5eaa"/><stop offset="1" style="stop-color:#71d0f6"/></linearGradient><path id="XMLID_918_" d="M1452.6,248.8c-13.5-15.7-28.3-28.9-43.9-38.2c-27.1-16.2-52.2-18.4-72.2-9.1l-0.1-0.1 l-1.3,0.8c-2.7,1.3-5.3,2.9-7.8,4.7l-60.6,36.3l19.1,27.5l107.4,31.6L1452.6,248.8z" class="st136"/><linearGradient id="XMLID_164_" x1="1786.423" x2="1672.979" y1="821.3" y2="581.323" gradientUnits="userSpaceOnUse"><stop offset="0" style="stop-color:#4d5eaa"/><stop offset="1" style="stop-color:#71d0f6"/></linearGradient><path id="XMLID_486_" d="M1778.6,817.5c3-1.4,5.8-3.1,8.5-5.1l0,0l0,0c19-14.1,30.9-42.1,31.4-80.7 c0.8-65.7-32.1-140.8-77-182.8l-69.2,41.5l9.2,222.2l37.1,40.7L1778.6,817.5z" class="st137"/><linearGradient id="XMLID_165_" x1="1751.754" x2="1089.377" y1="839.3" y2="118.228" gradientUnits="userSpaceOnUse"><stop offset="0" style="stop-color:#5356a5"/><stop offset="1" style="stop-color:#4ec5d4"/></linearGradient><path id="XMLID_485_" d="M1222.9,318.8c8.7-71.9,57.9-101.8,116.6-66.7c19.4,11.6,37.7,29.1,53.6,50.1 c25.5-50.5,76.2-65.1,134.2-30.5c82.4,49.3,148.1,179.6,146.8,291c-0.1,9.7-0.8,19-1.9,27.7c45,42,77.8,117.1,77,182.8 c-0.9,77.2-48,112.1-105.1,78l-389.6-226c-59.9-35.8-107.7-130.5-106.7-211.5C1148.9,349.4,1180.1,313.1,1222.9,318.8z" class="st138"/></g><g id="XMLID_476_"><linearGradient id="XMLID_166_" x1="1603.604" x2="1320.373" y1="1029.736" y2="430.593" gradientUnits="userSpaceOnUse"><stop offset="0" style="stop-color:#4d5eaa"/><stop offset="1" style="stop-color:#71d0f6"/></linearGradient><path id="XMLID_483_" d="M1166.8,348.9l-23.7-34.1l60.6-36.3c2.5-1.8,5.1-3.3,7.8-4.7l1.3-0.8l0.1,0.1 c20-9.3,45.1-7.1,72.2,9.1c15.6,9.3,30.4,22.5,43.9,38.2l40.1-24.2c2.6-1.8,5.2-3.4,7.9-4.8l0.1-0.1v0 c26.2-13.6,59.6-11.2,95.8,10.4c82.4,49.3,148.1,179.6,146.8,291c-0.1,9.7-0.8,19-1.9,27.7c45,42,77.8,117.1,77,182.8 c-0.5,38.5-12.4,66.5-31.4,80.7l0,0l0,0c-2.7,2-5.6,3.7-8.5,5.1l-60,35.9l-55.4-60.9l3.4-10l-342.6-198.7 c-59.9-35.8-107.7-130.5-106.7-211.5C1094.4,380.5,1124.9,344.4,1166.8,348.9z" class="st139"/><linearGradient id="XMLID_167_" x1="1317.459" x2="1238.088" y1="444.534" y2="320.83" gradientUnits="userSpaceOnUse"><stop offset="0" style="stop-color:#4d5eaa"/><stop offset="1" style="stop-color:#71d0f6"/></linearGradient><path id="XMLID_482_" d="M1329,320.5c-13.5-15.7-28.3-28.9-43.9-38.2c-27.1-16.2-52.2-18.4-72.2-9.1l-0.1-0.1 l-1.3,0.8c-2.7,1.3-5.3,2.9-7.8,4.7l-60.6,36.3l19.1,27.5l107.4,31.6L1329,320.5z" class="st140"/><linearGradient id="XMLID_168_" x1="1662.79" x2="1549.347" y1="893.034" y2="653.058" gradientUnits="userSpaceOnUse"><stop offset="0" style="stop-color:#4d5eaa"/><stop offset="1" style="stop-color:#71d0f6"/></linearGradient><path id="XMLID_481_" d="M1655,889.2c3-1.4,5.8-3.1,8.5-5.1l0,0l0,0c19-14.1,30.9-42.1,31.4-80.7 c0.8-65.7-32.1-140.8-77-182.8l-69.2,41.5l9.2,222.2l37.1,40.7L1655,889.2z" class="st141"/><linearGradient id="XMLID_169_" x1="1628.121" x2="965.744" y1="911.034" y2="189.963" gradientUnits="userSpaceOnUse"><stop offset="0" style="stop-color:#5356a5"/><stop offset="1" style="stop-color:#4ec5d4"/></linearGradient><path id="XMLID_477_" d="M1099.3,390.5c8.7-71.9,57.9-101.8,116.6-66.7c19.4,11.6,37.7,29.1,53.6,50.1 c25.5-50.5,76.2-65.1,134.2-30.5c82.4,49.3,148.1,179.6,146.8,291c-0.1,9.7-0.8,19-1.9,27.7c45,42,77.8,117.1,77,182.8 c-0.9,77.2-48,112.1-105.1,78l-389.6-226c-59.9-35.8-107.7-130.5-106.7-211.5C1025.2,421.1,1056.5,384.8,1099.3,390.5z" class="st142"/></g></g></g><g id="XMLID_446_"><path id="XMLID_68_" d="M1439.4,1012.3c-14.3,0-29.7-4.7-45.3-14l-389.5-225.9c-61.7-36.9-110.9-134.3-109.9-217.2 c0.5-38.6,11.8-69.4,31.8-86.7c12.3-10.7,27.5-15.9,44-15.1c5.7-36.2,21.9-62.5,46-74.3c22.9-11.2,51.1-8,79.6,9 c17.4,10.4,34,25.2,49.4,44c12.7-20.8,30.2-34.9,51-40.9c26.4-7.6,56.6-1.9,87.5,16.5c84.1,50.3,151.3,183.3,150,296.7 c-0.1,8.5-0.6,17-1.5,25.2c46.1,44.5,77.5,120.2,76.7,185.3c-0.5,43.1-15.3,75.9-40.5,90.1 C1459.5,1009.9,1449.7,1012.3,1439.4,1012.3z M967.5,466.3c-12.3,0-23.4,4.1-32.5,12c-17.2,14.9-26.9,42.3-27.3,77.1 c-1,78.8,45.5,171.1,103.5,205.8l389.5,225.9c22.7,13.6,44.5,15.9,61.4,6.4c21.1-11.8,33.4-40.5,33.9-78.8 c0.8-62.9-30.1-136-75-177.9l-2.4-2.3l0.4-3.3c1.1-8.8,1.7-17.8,1.8-27c1.3-109.2-63.1-237.2-143.6-285.3 c-27.7-16.5-54.4-21.8-77.2-15.2c-20,5.8-36.6,20.7-47.9,43l-4.7,9.3l-6.3-8.3c-15.9-20.9-33.8-37.7-51.8-48.5 c-24.9-14.9-48.1-17.8-67.2-8.5c-21.3,10.5-35.4,35.5-39.6,70.4l-0.8,6.5l-6.5-0.9C972.6,466.5,970,466.3,967.5,466.3z" class="st143"/></g></g><g id="_x32__1_"><g id="XMLID_55_"><linearGradient id="XMLID_170_" x1="1492.29" x2="1516.191" y1="2055.112" y2="2019.36" gradientUnits="userSpaceOnUse"><stop offset="0" style="stop-color:#4254a4"/><stop offset="1" style="stop-color:#19aee1"/></linearGradient><path id="XMLID_56_" d="M1518.9,2021.3c-4.9-2.4-8.9-2.9-8.9-2.9l-0.1,0.1c-2.5-0.4-5.5,0.2-8.7,2.1 c-8.5,4.9-15.4,16.4-15.4,25.7c0,2.2,0.4,4.1,1.1,5.6l0,0c0,0,1.3,4,6.3,6.9c4.9,3,11.2,4.5,11.2,4.5l22.6-35.6 C1527,2027.8,1523.8,2023.7,1518.9,2021.3z" class="st144"/><linearGradient id="XMLID_171_" x1="1499.747" x2="1526.642" y1="1952.678" y2="1937.397" gradientTransform="matrix(0.8656 -0.5007 9.000000e-04 1.1547 203.4049 556.1859)" gradientUnits="userSpaceOnUse"><stop offset="0" style="stop-color:#545daa"/><stop offset="1" style="stop-color:#71cac5"/></linearGradient><path id="XMLID_63_" d="M1530,2036.1c0,9.3-6.9,20.8-15.4,25.7c-8.5,4.9-15.4,1.4-15.4-7.9 c0-9.3,6.9-20.8,15.4-25.7C1523.1,2023.2,1530,2026.8,1530,2036.1z" class="st145"/><linearGradient id="XMLID_172_" x1="1521.042" x2="1504.501" y1="1950.101" y2="1940.455" gradientTransform="matrix(0.8656 -0.5007 9.000000e-04 1.1547 203.4049 556.1859)" gradientUnits="userSpaceOnUse"><stop offset="0" style="stop-color:#8575b5"/><stop offset="1" style="stop-color:#fef6f9"/></linearGradient><path id="XMLID_71_" d="M1523.3,2039.9c0,5.2-3.9,11.7-8.6,14.5c-4.8,2.8-8.7,0.8-8.7-4.5c0-5.2,3.9-11.7,8.6-14.5 C1519.4,2032.7,1523.3,2034.7,1523.3,2039.9z" class="st146"/></g><g id="XMLID_72_"><linearGradient id="XMLID_173_" x1="1238.109" x2="1262.01" y1="1908.457" y2="1872.704" gradientUnits="userSpaceOnUse"><stop offset="0" style="stop-color:#4254a4"/><stop offset="1" style="stop-color:#19aee1"/></linearGradient><path id="XMLID_73_" d="M1264.7,1874.7c-4.9-2.4-8.9-2.9-8.9-2.9l-0.1,0.1c-2.5-0.4-5.5,0.2-8.7,2.1 c-8.5,4.9-15.4,16.4-15.4,25.7c0,2.2,0.4,4.1,1.1,5.6l0,0c0,0,1.3,4,6.3,6.9c4.9,3,11.2,4.5,11.2,4.5l22.6-35.6 C1272.8,1881.2,1269.6,1877.1,1264.7,1874.7z" class="st147"/><linearGradient id="XMLID_174_" x1="1206.365" x2="1233.26" y1="1698.455" y2="1683.173" gradientTransform="matrix(0.8656 -0.5007 9.000000e-04 1.1547 203.4049 556.1859)" gradientUnits="userSpaceOnUse"><stop offset="0" style="stop-color:#545daa"/><stop offset="1" style="stop-color:#71cac5"/></linearGradient><path id="XMLID_74_" d="M1275.8,1889.4c0,9.3-6.9,20.8-15.4,25.7c-8.5,4.9-15.4,1.4-15.4-7.9 c0-9.3,6.9-20.8,15.4-25.7C1268.9,1876.5,1275.8,1880.1,1275.8,1889.4z" class="st148"/><linearGradient id="XMLID_175_" x1="1227.66" x2="1211.119" y1="1695.877" y2="1686.232" gradientTransform="matrix(0.8656 -0.5007 9.000000e-04 1.1547 203.4049 556.1859)" gradientUnits="userSpaceOnUse"><stop offset="0" style="stop-color:#8575b5"/><stop offset="1" style="stop-color:#fef6f9"/></linearGradient><path id="XMLID_75_" d="M1269.1,1893.3c0,5.2-3.9,11.7-8.6,14.5c-4.8,2.8-8.7,0.8-8.7-4.5c0-5.2,3.9-11.7,8.6-14.5 C1265.2,1886.1,1269.1,1888.1,1269.1,1893.3z" class="st149"/></g><g id="XMLID_76_"><linearGradient id="XMLID_176_" x1="1244.825" x2="1268.726" y1="2055.408" y2="2019.655" gradientUnits="userSpaceOnUse"><stop offset="0" style="stop-color:#4254a4"/><stop offset="1" style="stop-color:#19aee1"/></linearGradient><path id="XMLID_77_" d="M1271.4,2021.6c-4.9-2.4-8.9-2.9-8.9-2.9l-0.1,0.1c-2.5-0.4-5.5,0.2-8.7,2.1 c-8.5,4.9-15.4,16.4-15.4,25.7c0,2.2,0.4,4.1,1.1,5.6l0,0c0,0,1.3,4,6.3,6.9c4.9,3,11.2,4.5,11.2,4.5l22.6-35.6 C1279.5,2028.1,1276.3,2024,1271.4,2021.6z" class="st150"/><linearGradient id="XMLID_177_" x1="1213.988" x2="1240.883" y1="1829.023" y2="1813.742" gradientTransform="matrix(0.8656 -0.5007 9.000000e-04 1.1547 203.4049 556.1859)" gradientUnits="userSpaceOnUse"><stop offset="0" style="stop-color:#545daa"/><stop offset="1" style="stop-color:#71cac5"/></linearGradient><path id="XMLID_81_" d="M1282.5,2036.3c0,9.3-6.9,20.8-15.4,25.7c-8.5,4.9-15.4,1.4-15.4-7.9 c0-9.3,6.9-20.8,15.4-25.7C1275.6,2023.5,1282.5,2027.1,1282.5,2036.3z" class="st151"/><linearGradient id="XMLID_178_" x1="1235.283" x2="1218.741" y1="1826.445" y2="1816.8" gradientTransform="matrix(0.8656 -0.5007 9.000000e-04 1.1547 203.4049 556.1859)" gradientUnits="userSpaceOnUse"><stop offset="0" style="stop-color:#8575b5"/><stop offset="1" style="stop-color:#fef6f9"/></linearGradient><path id="XMLID_82_" d="M1275.8,2040.2c0,5.2-3.9,11.7-8.6,14.5s-8.7,0.8-8.7-4.5c0-5.2,3.9-11.7,8.6-14.5 C1271.9,2033,1275.8,2035,1275.8,2040.2z" class="st152"/></g><g id="XMLID_85_"><linearGradient id="XMLID_179_" x1="1492.289" x2="1516.191" y1="1911.621" y2="1875.868" gradientUnits="userSpaceOnUse"><stop offset="0" style="stop-color:#4254a4"/><stop offset="1" style="stop-color:#19aee1"/></linearGradient><path id="XMLID_108_" d="M1518.9,1877.9c-4.9-2.4-8.9-2.9-8.9-2.9l-0.1,0.1c-2.5-0.4-5.5,0.2-8.7,2.1 c-8.5,4.9-15.4,16.4-15.4,25.7c0,2.2,0.4,4.1,1.1,5.6l0,0c0,0,1.3,4,6.3,6.9c4.9,3,11.2,4.5,11.2,4.5l22.6-35.6 C1527,1884.3,1523.8,1880.2,1518.9,1877.9z" class="st153"/><linearGradient id="XMLID_180_" x1="1499.876" x2="1526.771" y1="1828.466" y2="1813.185" gradientTransform="matrix(0.8656 -0.5007 9.000000e-04 1.1547 203.4049 556.1859)" gradientUnits="userSpaceOnUse"><stop offset="0" style="stop-color:#545daa"/><stop offset="1" style="stop-color:#71cac5"/></linearGradient><path id="XMLID_109_" d="M1530,1892.6c0,9.3-6.9,20.8-15.4,25.7c-8.5,4.9-15.4,1.4-15.4-7.9 c0-9.3,6.9-20.8,15.4-25.7C1523.1,1879.7,1530,1883.3,1530,1892.6z" class="st154"/><linearGradient id="XMLID_181_" x1="1521.171" x2="1504.63" y1="1825.889" y2="1816.243" gradientTransform="matrix(0.8656 -0.5007 9.000000e-04 1.1547 203.4049 556.1859)" gradientUnits="userSpaceOnUse"><stop offset="0" style="stop-color:#8575b5"/><stop offset="1" style="stop-color:#fef6f9"/></linearGradient><path id="XMLID_110_" d="M1523.3,1896.5c0,5.2-3.9,11.7-8.6,14.5c-4.8,2.8-8.7,0.8-8.7-4.5s3.9-11.7,8.6-14.5 C1519.4,1889.2,1523.3,1891.2,1523.3,1896.5z" class="st155"/></g><g id="XMLID_111_"><linearGradient id="XMLID_182_" x1="1504.035" x2="1235.866" y1="2007.764" y2="1851.596" gradientUnits="userSpaceOnUse"><stop offset="0" style="stop-color:#4756a6"/><stop offset="1" style="stop-color:#71cac5"/></linearGradient><path id="XMLID_112_" d="M1396,1914.7l121.2,106.6c6.1,5,13.1,28-19.3,11l0,0l-240.3-137.7l0,0 c-36.1-22.3-9.3-28.1,2.9-23.8l119.4,41.5C1384.5,1913.8,1392.3,1911.6,1396,1914.7z" class="st156"/><linearGradient id="XMLID_183_" x1="1248.927" x2="1538.489" y1="2010.96" y2="1846.436" gradientUnits="userSpaceOnUse"><stop offset="0" style="stop-color:#4756a6"/><stop offset="1" style="stop-color:#71cac5"/></linearGradient><path id="XMLID_113_" d="M1366,1914.7l-121.2,106.6c-6.1,5-13.1,28,19.3,11l0,0l240.2-137.7l0,0 c36.1-22.3,9.3-28.1-2.9-23.8l-119.4,41.5C1377.4,1913.8,1369.7,1911.6,1366,1914.7z" class="st157"/><linearGradient id="XMLID_184_" x1="1377.701" x2="1377.701" y1="1962.338" y2="1894.545" gradientUnits="userSpaceOnUse"><stop offset="0" style="stop-color:#292973"/><stop offset="1" style="stop-color:#404a9f"/></linearGradient><path id="XMLID_114_" d="M1419.4,1934.9c0,15.2-18.7,27.5-41.7,27.5c-23.1,0-41.7-12.3-41.7-27.5 c0-15.2,18.7-40.3,41.7-40.3C1400.8,1894.5,1419.4,1919.7,1419.4,1934.9z" class="st158"/><linearGradient id="XMLID_185_" x1="1395.006" x2="1355.039" y1="1933.449" y2="1890.158" gradientUnits="userSpaceOnUse"><stop offset="0" style="stop-color:#545daa"/><stop offset="1" style="stop-color:#71cac5"/></linearGradient><ellipse id="XMLID_115_" cx="1377.7" cy="1914.7" class="st159" rx="30.6" ry="20.2"/><g id="XMLID_116_"><linearGradient id="XMLID_186_" x1="1377.701" x2="1377.701" y1="1914.936" y2="1790.791" gradientUnits="userSpaceOnUse"><stop offset="0" style="stop-color:#292973"/><stop offset="1" style="stop-color:#404a9f"/></linearGradient><path id="XMLID_117_" d="M1377.7,1914.7L1377.7,1914.7c-10.3,0-18.7-8.3-18.7-18.6V1717c0-10.3,8.4-18.6,18.7-18.6 l0,0c10.3,0,18.7,8.3,18.7,18.6v179.1C1396.4,1906.4,1388,1914.7,1377.7,1914.7z" class="st160"/></g><linearGradient id="XMLID_187_" x1="1424.878" x2="1349.482" y1="1791.014" y2="1630.799" gradientUnits="userSpaceOnUse"><stop offset="0" style="stop-color:#292973"/><stop offset="1" style="stop-color:#3d71b7"/></linearGradient><path id="XMLID_118_" d="M1540.3,1663.9l-18.4-1.4c-2.4-1.8-5.1-3.5-8-5.1l-43.9-23.7 c-38.1-20.6-103.7-16.1-146.4,9.9l-58.7,35.9l-45.5,14.5l0.1,28.7c0,0,0.1,0.1,0.2,0.1c0,8.3,4.9,16.1,15.3,21.7l98.3,54.3 c22.4,12.1,61,9.5,86.1-5.8l86.3-51.3c21.9-13.3,33.4-29.7,34.5-45.3c0,0,0.2,0,0.2,0V1663.9z" class="st161"/><linearGradient id="XMLID_188_" x1="1508.514" x2="1321.688" y1="1817.321" y2="1614.961" gradientUnits="userSpaceOnUse"><stop offset="0" style="stop-color:#545daa"/><stop offset="1" style="stop-color:#71cac5"/></linearGradient><path id="XMLID_119_" d="M1333.3,1771.1l-98.3-54.3c-22.4-12.1-20.3-34.3,4.9-49.6l83.8-51.3 c42.7-26,108.2-30.5,146.4-9.9l43.9,23.7c38.1,20.6,34.4,58.3-8.3,84.3l-86.3,51.3C1394.3,1780.6,1355.7,1783.2,1333.3,1771.1z" class="st162"/><g id="XMLID_120_"><g id="XMLID_610_"><linearGradient id="XMLID_189_" x1="1264.001" x2="1264.001" y1="1663.382" y2="1909.507" gradientUnits="userSpaceOnUse"><stop offset="0" style="stop-color:#292973"/><stop offset="1" style="stop-color:#404a9f"/></linearGradient><path id="XMLID_122_" d="M1274.7,1775.6c-8.1,0-15.4-1.7-22-5.2c-16.1-8.6-20.4-24.3-20.8-26.1l-0.4-3v-78.8 c0-6.8,5.6-12.4,12.5-12.4h0c6.9,0,12.5,5.6,12.5,12.4v76.9c0.8,2,3.2,6.6,8.3,9.3c4.2,2.1,9.7,2.7,16.4,1.5 c6.2-1,12.3,2.1,14.4,7.9l0,0c2.7,7.4-2.2,15.1-9.9,16.5C1281.9,1775.3,1278.3,1775.6,1274.7,1775.6z" class="st163"/></g><linearGradient id="XMLID_190_" x1="1408.892" x2="1149.009" y1="1650.181" y2="1368.689" gradientUnits="userSpaceOnUse"><stop offset="0" style="stop-color:#545daa"/><stop offset="1" style="stop-color:#71cac5"/></linearGradient><path id="XMLID_609_" d="M1302.6,1359.8l-47.8-27.5c-17.3-9.9-33.2-11.3-45.9-5.6l0-0.1l-1.2,0.6 c-0.4,0.2-0.7,0.3-1.1,0.5l-27.3,13.1l5.7,13.7c-3.5,9.5-5.5,21-5.6,34.2l-0.2,154.5c0,32.4,19.8,70.1,44.2,84.2l98.9,56.9 l9.7,23.2l29.3-14.1v-0.3c9.9-5.1,16.3-17.5,16.3-35.8l0.2-154.5C1377.8,1447.7,1344.1,1383.7,1302.6,1359.8z" class="st164"/><linearGradient id="XMLID_191_" x1="1333.523" x2="1164.554" y1="1706.766" y2="1347.707" gradientUnits="userSpaceOnUse"><stop offset="0" style="stop-color:#292973"/><stop offset="1" style="stop-color:#3d71b7"/></linearGradient><path id="XMLID_121_" d="M1304.7,1704.3l-109.8-63.1c-24.5-14.1-44.2-51.7-44.2-84.1l0.2-154.5 c0.1-55.1,33.8-80.4,75.4-56.5l47.8,27.5c41.6,23.9,75.2,87.9,75.1,143L1349,1671C1349,1703.4,1329.1,1718.3,1304.7,1704.3z" class="st165"/></g></g></g></svg>