<svg xmlns="http://www.w3.org/2000/svg" xmlns:xlink="http://www.w3.org/1999/xlink" id="Capa_1" x="0" y="0" version="1.1" viewBox="0 0 400 400" xml:space="preserve" style="enable-background:new 0 0 400 400"><g id="XMLID_484_"><polygon id="XMLID_486_" points="185 300 185 370 200 370 215 370 215 300 200 300" style="fill:#565659"/><polygon id="XMLID_487_" points="215 30 215 0 185 0 185 30 200 30" style="fill:#565659"/><path id="XMLID_488_" d="M200,60H50v210h150h150V60H200z M125,240H95v-30h30V240z M125,209.999H95v-60h30 V209.999z M185,240h-30v-30h30V240z M185,209.999h-30v-80h30V209.999z M245,240h-30v-30h30V240z M245,209.999h-30v-100h30V209.999z M305,240h-30v-30h30V240z M305,209.999h-30v-120h30V209.999z" style="fill:#ffda44"/><rect id="XMLID_500_" width="30" height="30" x="95" y="210" style="fill:#ff9811"/><rect id="XMLID_501_" width="30" height="60" x="95" y="149.999" style="fill:#fff"/><rect id="XMLID_502_" width="30" height="30" x="155" y="210" style="fill:#ff5023"/><rect id="XMLID_503_" width="30" height="80" x="155" y="129.999" style="fill:#fff"/><rect id="XMLID_504_" width="30" height="30" x="215" y="210" style="fill:#d80027"/><rect id="XMLID_505_" width="30" height="100" x="215" y="109.999" style="fill:#fff"/><rect id="XMLID_506_" width="30" height="30" x="275" y="210" style="fill:#a2001d"/><rect id="XMLID_507_" width="30" height="120" x="275" y="89.999" style="fill:#fff"/><polygon id="XMLID_508_" points="200 30 185 30 20 30 20 60 50 60 200 60" style="fill:#acabb1"/><polygon id="XMLID_509_" points="200 270 50 270 20 270 20 300 185 300 200 300" style="fill:#acabb1"/><polygon id="XMLID_510_" points="200 60 350 60 380 60 380 30 215 30 200 30" style="fill:#818085"/><polygon id="XMLID_511_" points="200 300 215 300 380 300 380 270 350 270 200 270" style="fill:#818085"/><polygon id="XMLID_512_" points="200 400 280 400 280 370 215 370 200 370" style="fill:#818085"/><polygon id="XMLID_515_" points="185 370 120 370 120 400 200 400 200 370" style="fill:#acabb1"/></g></svg>